<?xml version="1.0" standalone="no"?>
 <!DOCTYPE svg PUBLIC "-//W3C//DTD SVG 1.1//EN" 
 "http://www.w3.org/Graphics/SVG/1.1/DTD/svg11.dtd"> 
<svg
  xmlns:svg="http://www.w3.org/2000/svg"
  xmlns="http://www.w3.org/2000/svg"
  xmlns:xlink="http://www.w3.org/1999/xlink"
  version="1.1"
  width="8.229600cm" height="2.029460cm" viewBox="0 0 82296000 20294600">
<title>SVG Picture created as SAMD-UPDI-breakaway-F_Cu.svg date 2022/02/16 03:29:39 </title>
  <desc>Picture generated by PCBNEW </desc>
<g style="fill:#000000; fill-opacity:1.000000;stroke:#000000; stroke-opacity:1.000000;
stroke-linecap:round; stroke-linejoin:round;"
 transform="translate(0 0) scale(1 1)">
</g>
<g style="fill:#000000; fill-opacity:0.0; 
stroke:#000000; stroke-width:0.000000; stroke-opacity:1; 
stroke-linecap:round; stroke-linejoin:round;">
</g>
<g style="fill:#000000; fill-opacity:0.0; 
stroke:#000000; stroke-width:500000.000000; stroke-opacity:1; 
stroke-linecap:round; stroke-linejoin:round;">
<text x="67928000.000000" y="6600000.000000"
textLength="6615238.000000" font-size="2666666.000000" lengthAdjust="spacingAndGlyphs"
text-anchor="middle" opacity="0">GND</text>
<g class="stroked-text"><desc>GND</desc>
<path d="M66404190 4600000
L66213714 4504762
L65928000 4504762
L65642285 4600000
L65451809 4790477
L65356571 4980953
L65261333 5361905
L65261333 5647620
L65356571 6028572
L65451809 6219048
L65642285 6409524
L65928000 6504762
L66118476 6504762
L66404190 6409524
L66499428 6314286
L66499428 5647620
L66118476 5647620
" />
<path d="M67356571 6504762
L67356571 4504762
L68499428 6504762
L68499428 4504762
" />
<path d="M69451809 6504762
L69451809 4504762
L69928000 4504762
L70213714 4600000
L70404190 4790477
L70499428 4980953
L70594666 5361905
L70594666 5647620
L70499428 6028572
L70404190 6219048
L70213714 6409524
L69928000 6504762
L69451809 6504762
" />
</g><text x="75294000.000000" y="17014000.000000"
textLength="2745238.000000" font-size="2666666.000000" lengthAdjust="spacingAndGlyphs"
text-anchor="middle" opacity="0">U</text>
<g class="stroked-text"><desc>U</desc>
<path d="M74722571 14918762
L74722571 16537810
L74817809 16728286
L74913047 16823524
L75103523 16918762
L75484476 16918762
L75674952 16823524
L75770190 16728286
L75865428 16537810
L75865428 14918762
" />
</g><g >
</g>
<g style="fill:#000000; fill-opacity:0.0; 
stroke:#000000; stroke-width:1.000000; stroke-opacity:1; 
stroke-linecap:round; stroke-linejoin:round;">
</g>
<g style="fill:#000000; fill-opacity:1.0; 
stroke:#000000; stroke-width:1.000000; stroke-opacity:1; 
stroke-linecap:round; stroke-linejoin:round;">
<path style="fill:#000000; fill-opacity:1.0; 
stroke:#000000; stroke-width:1.000000; stroke-opacity:1; 
stroke-linecap:round; stroke-linejoin:round;fill-rule:evenodd;"
d="M 36230001.000000,14070001.000000
37929999.000000,14070001.000000
37929999.000000,16069999.000000
36230001.000000,16069999.000000
Z" /> 
<path style="fill:#000000; fill-opacity:1.0; 
stroke:#000000; stroke-width:1.000000; stroke-opacity:1; 
stroke-linecap:round; stroke-linejoin:round;fill-rule:evenodd;"
d="M 36230001.000000,10070001.000000
37929999.000000,10070001.000000
37929999.000000,12069999.000000
36230001.000000,12069999.000000
Z" /> 
</g>
<g >
</g>
<g style="fill:#000000; fill-opacity:1.0; 
stroke:#000000; stroke-width:1.000000; stroke-opacity:1; 
stroke-linecap:round; stroke-linejoin:round;">
<path style="fill:#000000; fill-opacity:1.0; 
stroke:#000000; stroke-width:1.000000; stroke-opacity:1; 
stroke-linecap:round; stroke-linejoin:round;fill-rule:evenodd;"
d="M 13130001.000000,6945001.000000
14829999.000000,6945001.000000
14829999.000000,8944999.000000
13130001.000000,8944999.000000
Z" /> 
<path style="fill:#000000; fill-opacity:1.0; 
stroke:#000000; stroke-width:1.000000; stroke-opacity:1; 
stroke-linecap:round; stroke-linejoin:round;fill-rule:evenodd;"
d="M 13130001.000000,10945001.000000
14829999.000000,10945001.000000
14829999.000000,12944999.000000
13130001.000000,12944999.000000
Z" /> 
</g>
<g >
</g>
<g style="fill:#000000; fill-opacity:1.0; 
stroke:#000000; stroke-width:1.000000; stroke-opacity:1; 
stroke-linecap:round; stroke-linejoin:round;">
<path style="fill:#000000; fill-opacity:1.0; 
stroke:#000000; stroke-width:1.000000; stroke-opacity:1; 
stroke-linecap:round; stroke-linejoin:round;fill-rule:evenodd;"
d="M 44629999.000000,17969999.000000
42930001.000000,17969999.000000
42930001.000000,15970001.000000
44629999.000000,15970001.000000
Z" /> 
<path style="fill:#000000; fill-opacity:1.0; 
stroke:#000000; stroke-width:1.000000; stroke-opacity:1; 
stroke-linecap:round; stroke-linejoin:round;fill-rule:evenodd;"
d="M 44629999.000000,13969999.000000
42930001.000000,13969999.000000
42930001.000000,11970001.000000
44629999.000000,11970001.000000
Z" /> 
</g>
<g >
</g>
<g style="fill:#000000; fill-opacity:1.0; 
stroke:#000000; stroke-width:1.000000; stroke-opacity:1; 
stroke-linecap:round; stroke-linejoin:round;">
<path style="fill:#000000; fill-opacity:1.0; 
stroke:#000000; stroke-width:1.000000; stroke-opacity:1; 
stroke-linecap:round; stroke-linejoin:round;fill-rule:evenodd;"
d="M 41329999.000000,11969999.000000
39630001.000000,11969999.000000
39630001.000000,9970001.000000
41329999.000000,9970001.000000
Z" /> 
<path style="fill:#000000; fill-opacity:1.0; 
stroke:#000000; stroke-width:1.000000; stroke-opacity:1; 
stroke-linecap:round; stroke-linejoin:round;fill-rule:evenodd;"
d="M 41329999.000000,15969999.000000
39630001.000000,15969999.000000
39630001.000000,13970001.000000
41329999.000000,13970001.000000
Z" /> 
</g>
<g >
</g>
<g style="fill:#000000; fill-opacity:1.0; 
stroke:#000000; stroke-width:1.000000; stroke-opacity:1; 
stroke-linecap:round; stroke-linejoin:round;">
<path style="fill:#000000; fill-opacity:1.0; 
stroke:#000000; stroke-width:1.000000; stroke-opacity:1; 
stroke-linecap:round; stroke-linejoin:round;fill-rule:evenodd;"
d="M 36230001.000000,5970001.000000
37929999.000000,5970001.000000
37929999.000000,7969999.000000
36230001.000000,7969999.000000
Z" /> 
<path style="fill:#000000; fill-opacity:1.0; 
stroke:#000000; stroke-width:1.000000; stroke-opacity:1; 
stroke-linecap:round; stroke-linejoin:round;fill-rule:evenodd;"
d="M 36230001.000000,1970001.000000
37929999.000000,1970001.000000
37929999.000000,3969999.000000
36230001.000000,3969999.000000
Z" /> 
</g>
<g >
</g>
<g style="fill:#000000; fill-opacity:1.0; 
stroke:#000000; stroke-width:1.000000; stroke-opacity:1; 
stroke-linecap:round; stroke-linejoin:round;">
<path style="fill:#000000; fill-opacity:1.0; 
stroke:#000000; stroke-width:1.000000; stroke-opacity:1; 
stroke-linecap:round; stroke-linejoin:round;fill-rule:evenodd;"
d="M 39730001.000000,5970001.000000
41429999.000000,5970001.000000
41429999.000000,7969999.000000
39730001.000000,7969999.000000
Z" /> 
<path style="fill:#000000; fill-opacity:1.0; 
stroke:#000000; stroke-width:1.000000; stroke-opacity:1; 
stroke-linecap:round; stroke-linejoin:round;fill-rule:evenodd;"
d="M 39730001.000000,1970001.000000
41429999.000000,1970001.000000
41429999.000000,3969999.000000
39730001.000000,3969999.000000
Z" /> 
</g>
<g >
</g>
<g style="fill:#000000; fill-opacity:1.0; 
stroke:#000000; stroke-width:1.000000; stroke-opacity:1; 
stroke-linecap:round; stroke-linejoin:round;">
<path style="fill:#000000; fill-opacity:1.0; 
stroke:#000000; stroke-width:1.000000; stroke-opacity:1; 
stroke-linecap:round; stroke-linejoin:round;fill-rule:evenodd;"
d="M 46530001.000000,17119999.000000
46530001.000000,15420001.000000
49029999.000000,15420001.000000
49029999.000000,17119999.000000
Z" /> 
<path style="fill:#000000; fill-opacity:1.0; 
stroke:#000000; stroke-width:1.000000; stroke-opacity:1; 
stroke-linecap:round; stroke-linejoin:round;fill-rule:evenodd;"
d="M 46530001.000000,14579999.000000
46530001.000000,12880001.000000
49029999.000000,12880001.000000
49029999.000000,14579999.000000
Z" /> 
<path style="fill:#000000; fill-opacity:1.0; 
stroke:#000000; stroke-width:1.000000; stroke-opacity:1; 
stroke-linecap:round; stroke-linejoin:round;fill-rule:evenodd;"
d="M 46530001.000000,12039999.000000
46530001.000000,10340001.000000
49029999.000000,10340001.000000
49029999.000000,12039999.000000
Z" /> 
<path style="fill:#000000; fill-opacity:1.0; 
stroke:#000000; stroke-width:1.000000; stroke-opacity:1; 
stroke-linecap:round; stroke-linejoin:round;fill-rule:evenodd;"
d="M 46530001.000000,9499999.000000
46530001.000000,7800001.000000
49029999.000000,7800001.000000
49029999.000000,9499999.000000
Z" /> 
<path style="fill:#000000; fill-opacity:1.0; 
stroke:#000000; stroke-width:1.000000; stroke-opacity:1; 
stroke-linecap:round; stroke-linejoin:round;fill-rule:evenodd;"
d="M 46530001.000000,6959999.000000
46530001.000000,5260001.000000
49029999.000000,5260001.000000
49029999.000000,6959999.000000
Z" /> 
<path style="fill:#000000; fill-opacity:1.0; 
stroke:#000000; stroke-width:1.000000; stroke-opacity:1; 
stroke-linecap:round; stroke-linejoin:round;fill-rule:evenodd;"
d="M 46530001.000000,4419999.000000
46530001.000000,2720001.000000
49029999.000000,2720001.000000
49029999.000000,4419999.000000
Z" /> 
</g>
<g >
</g>
<g style="fill:#000000; fill-opacity:1.0; 
stroke:#000000; stroke-width:1.000000; stroke-opacity:1; 
stroke-linecap:round; stroke-linejoin:round;">
<path style="fill:#000000; fill-opacity:1.0; 
stroke:#000000; stroke-width:1.000000; stroke-opacity:1; 
stroke-linecap:round; stroke-linejoin:round;fill-rule:evenodd;"
d="M 61830001.000000,17119999.000000
61830001.000000,15420001.000000
64329999.000000,15420001.000000
64329999.000000,17119999.000000
Z" /> 
<path style="fill:#000000; fill-opacity:1.0; 
stroke:#000000; stroke-width:1.000000; stroke-opacity:1; 
stroke-linecap:round; stroke-linejoin:round;fill-rule:evenodd;"
d="M 61830001.000000,14579999.000000
61830001.000000,12880001.000000
64329999.000000,12880001.000000
64329999.000000,14579999.000000
Z" /> 
<path style="fill:#000000; fill-opacity:1.0; 
stroke:#000000; stroke-width:1.000000; stroke-opacity:1; 
stroke-linecap:round; stroke-linejoin:round;fill-rule:evenodd;"
d="M 61830001.000000,12039999.000000
61830001.000000,10340001.000000
64329999.000000,10340001.000000
64329999.000000,12039999.000000
Z" /> 
<path style="fill:#000000; fill-opacity:1.0; 
stroke:#000000; stroke-width:1.000000; stroke-opacity:1; 
stroke-linecap:round; stroke-linejoin:round;fill-rule:evenodd;"
d="M 61830001.000000,9499999.000000
61830001.000000,7800001.000000
64329999.000000,7800001.000000
64329999.000000,9499999.000000
Z" /> 
<path style="fill:#000000; fill-opacity:1.0; 
stroke:#000000; stroke-width:1.000000; stroke-opacity:1; 
stroke-linecap:round; stroke-linejoin:round;fill-rule:evenodd;"
d="M 61830001.000000,6959999.000000
61830001.000000,5260001.000000
64329999.000000,5260001.000000
64329999.000000,6959999.000000
Z" /> 
<path style="fill:#000000; fill-opacity:1.0; 
stroke:#000000; stroke-width:1.000000; stroke-opacity:1; 
stroke-linecap:round; stroke-linejoin:round;fill-rule:evenodd;"
d="M 61830001.000000,4419999.000000
61830001.000000,2720001.000000
64329999.000000,2720001.000000
64329999.000000,4419999.000000
Z" /> 
</g>
<g >
</g>
<g style="fill:#000000; fill-opacity:1.0; 
stroke:#000000; stroke-width:1.000000; stroke-opacity:1; 
stroke-linecap:round; stroke-linejoin:round;">
<path style="fill:#000000; fill-opacity:1.0; 
stroke:#000000; stroke-width:1.000000; stroke-opacity:1; 
stroke-linecap:round; stroke-linejoin:round;fill-rule:evenodd;"
d="M 32830001.000000,1970001.000000
34529999.000000,1970001.000000
34529999.000000,3969999.000000
32830001.000000,3969999.000000
Z" /> 
<path style="fill:#000000; fill-opacity:1.0; 
stroke:#000000; stroke-width:1.000000; stroke-opacity:1; 
stroke-linecap:round; stroke-linejoin:round;fill-rule:evenodd;"
d="M 32830001.000000,5970001.000000
34529999.000000,5970001.000000
34529999.000000,7969999.000000
32830001.000000,7969999.000000
Z" /> 
</g>
<g >
</g>
<g style="fill:#000000; fill-opacity:1.0; 
stroke:#000000; stroke-width:1.000000; stroke-opacity:1; 
stroke-linecap:round; stroke-linejoin:round;">
<path style="fill:#000000; fill-opacity:1.0; 
stroke:#000000; stroke-width:1.000000; stroke-opacity:1; 
stroke-linecap:round; stroke-linejoin:round;fill-rule:evenodd;"
d="M 74030001.000000,13499999.000000
74030001.000000,11800001.000000
76529999.000000,11800001.000000
76529999.000000,13499999.000000
Z" /> 
<path style="fill:#000000; fill-opacity:1.0; 
stroke:#000000; stroke-width:1.000000; stroke-opacity:1; 
stroke-linecap:round; stroke-linejoin:round;fill-rule:evenodd;"
d="M 74030001.000000,10959999.000000
74030001.000000,9260001.000000
76529999.000000,9260001.000000
76529999.000000,10959999.000000
Z" /> 
<path style="fill:#000000; fill-opacity:1.0; 
stroke:#000000; stroke-width:1.000000; stroke-opacity:1; 
stroke-linecap:round; stroke-linejoin:round;fill-rule:evenodd;"
d="M 74030001.000000,8419999.000000
74030001.000000,6720001.000000
76529999.000000,6720001.000000
76529999.000000,8419999.000000
Z" /> 
</g>
<g >
</g>
<g style="fill:#000000; fill-opacity:1.0; 
stroke:#000000; stroke-width:1.000000; stroke-opacity:1; 
stroke-linecap:round; stroke-linejoin:round;">
<path style="fill:#000000; fill-opacity:1.0; 
stroke:#000000; stroke-width:1.000000; stroke-opacity:1; 
stroke-linecap:round; stroke-linejoin:round;fill-rule:evenodd;"
d="M 69930001.000000,14570001.000000
71629999.000000,14570001.000000
71629999.000000,16569999.000000
69930001.000000,16569999.000000
Z" /> 
<path style="fill:#000000; fill-opacity:1.0; 
stroke:#000000; stroke-width:1.000000; stroke-opacity:1; 
stroke-linecap:round; stroke-linejoin:round;fill-rule:evenodd;"
d="M 69930001.000000,10570001.000000
71629999.000000,10570001.000000
71629999.000000,12569999.000000
69930001.000000,12569999.000000
Z" /> 
</g>
<g >
</g>
<g style="fill:#000000; fill-opacity:1.0; 
stroke:#000000; stroke-width:1.000000; stroke-opacity:1; 
stroke-linecap:round; stroke-linejoin:round;">
<path style="fill:#000000; fill-opacity:1.0; 
stroke:#000000; stroke-width:1.000000; stroke-opacity:1; 
stroke-linecap:round; stroke-linejoin:round;fill-rule:evenodd;"
d="M 25129999.000000,3819999.000000
23430001.000000,3819999.000000
23430001.000000,1820001.000000
25129999.000000,1820001.000000
Z" /> 
<path style="fill:#000000; fill-opacity:1.0; 
stroke:#000000; stroke-width:1.000000; stroke-opacity:1; 
stroke-linecap:round; stroke-linejoin:round;fill-rule:evenodd;"
d="M 25129999.000000,7819999.000000
23430001.000000,7819999.000000
23430001.000000,5820001.000000
25129999.000000,5820001.000000
Z" /> 
</g>
<g >
</g>
<g style="fill:#000000; fill-opacity:1.0; 
stroke:#000000; stroke-width:1.000000; stroke-opacity:1; 
stroke-linecap:round; stroke-linejoin:round;">
<path style="fill:#000000; fill-opacity:1.0; 
stroke:#000000; stroke-width:1.000000; stroke-opacity:1; 
stroke-linecap:round; stroke-linejoin:round;fill-rule:evenodd;"
d="M 34529999.000000,16069999.000000
32830001.000000,16069999.000000
32830001.000000,14070001.000000
34529999.000000,14070001.000000
Z" /> 
<path style="fill:#000000; fill-opacity:1.0; 
stroke:#000000; stroke-width:1.000000; stroke-opacity:1; 
stroke-linecap:round; stroke-linejoin:round;fill-rule:evenodd;"
d="M 34529999.000000,12069999.000000
32830001.000000,12069999.000000
32830001.000000,10070001.000000
34529999.000000,10070001.000000
Z" /> 
</g>
<g >
</g>
<g style="fill:#000000; fill-opacity:1.0; 
stroke:#000000; stroke-width:1.000000; stroke-opacity:1; 
stroke-linecap:round; stroke-linejoin:round;">
<path style="fill:#000000; fill-opacity:1.0; 
stroke:#000000; stroke-width:1.000000; stroke-opacity:1; 
stroke-linecap:round; stroke-linejoin:round;fill-rule:evenodd;"
d="M 30090001.000000,13745001.000000
30689999.000000,13745001.000000
30689999.000000,15744999.000000
30090001.000000,15744999.000000
Z" /> 
<path style="fill:#000000; fill-opacity:1.0; 
stroke:#000000; stroke-width:1.000000; stroke-opacity:1; 
stroke-linecap:round; stroke-linejoin:round;fill-rule:evenodd;"
d="M 28820001.000000,13745001.000000
29419999.000000,13745001.000000
29419999.000000,15744999.000000
28820001.000000,15744999.000000
Z" /> 
<path style="fill:#000000; fill-opacity:1.0; 
stroke:#000000; stroke-width:1.000000; stroke-opacity:1; 
stroke-linecap:round; stroke-linejoin:round;fill-rule:evenodd;"
d="M 27550001.000000,13745001.000000
28149999.000000,13745001.000000
28149999.000000,15744999.000000
27550001.000000,15744999.000000
Z" /> 
<path style="fill:#000000; fill-opacity:1.0; 
stroke:#000000; stroke-width:1.000000; stroke-opacity:1; 
stroke-linecap:round; stroke-linejoin:round;fill-rule:evenodd;"
d="M 26280001.000000,13745001.000000
26879999.000000,13745001.000000
26879999.000000,15744999.000000
26280001.000000,15744999.000000
Z" /> 
<path style="fill:#000000; fill-opacity:1.0; 
stroke:#000000; stroke-width:1.000000; stroke-opacity:1; 
stroke-linecap:round; stroke-linejoin:round;fill-rule:evenodd;"
d="M 25010001.000000,13745001.000000
25609999.000000,13745001.000000
25609999.000000,15744999.000000
25010001.000000,15744999.000000
Z" /> 
<path style="fill:#000000; fill-opacity:1.0; 
stroke:#000000; stroke-width:1.000000; stroke-opacity:1; 
stroke-linecap:round; stroke-linejoin:round;fill-rule:evenodd;"
d="M 23740001.000000,13745001.000000
24339999.000000,13745001.000000
24339999.000000,15744999.000000
23740001.000000,15744999.000000
Z" /> 
<path style="fill:#000000; fill-opacity:1.0; 
stroke:#000000; stroke-width:1.000000; stroke-opacity:1; 
stroke-linecap:round; stroke-linejoin:round;fill-rule:evenodd;"
d="M 22470001.000000,13745001.000000
23069999.000000,13745001.000000
23069999.000000,15744999.000000
22470001.000000,15744999.000000
Z" /> 
<path style="fill:#000000; fill-opacity:1.0; 
stroke:#000000; stroke-width:1.000000; stroke-opacity:1; 
stroke-linecap:round; stroke-linejoin:round;fill-rule:evenodd;"
d="M 22470001.000000,8795001.000000
23069999.000000,8795001.000000
23069999.000000,10794999.000000
22470001.000000,10794999.000000
Z" /> 
<path style="fill:#000000; fill-opacity:1.0; 
stroke:#000000; stroke-width:1.000000; stroke-opacity:1; 
stroke-linecap:round; stroke-linejoin:round;fill-rule:evenodd;"
d="M 23740001.000000,8795001.000000
24339999.000000,8795001.000000
24339999.000000,10794999.000000
23740001.000000,10794999.000000
Z" /> 
<path style="fill:#000000; fill-opacity:1.0; 
stroke:#000000; stroke-width:1.000000; stroke-opacity:1; 
stroke-linecap:round; stroke-linejoin:round;fill-rule:evenodd;"
d="M 25010001.000000,8795001.000000
25609999.000000,8795001.000000
25609999.000000,10794999.000000
25010001.000000,10794999.000000
Z" /> 
<path style="fill:#000000; fill-opacity:1.0; 
stroke:#000000; stroke-width:1.000000; stroke-opacity:1; 
stroke-linecap:round; stroke-linejoin:round;fill-rule:evenodd;"
d="M 26280001.000000,8795001.000000
26879999.000000,8795001.000000
26879999.000000,10794999.000000
26280001.000000,10794999.000000
Z" /> 
<path style="fill:#000000; fill-opacity:1.0; 
stroke:#000000; stroke-width:1.000000; stroke-opacity:1; 
stroke-linecap:round; stroke-linejoin:round;fill-rule:evenodd;"
d="M 27550001.000000,8795001.000000
28149999.000000,8795001.000000
28149999.000000,10794999.000000
27550001.000000,10794999.000000
Z" /> 
<path style="fill:#000000; fill-opacity:1.0; 
stroke:#000000; stroke-width:1.000000; stroke-opacity:1; 
stroke-linecap:round; stroke-linejoin:round;fill-rule:evenodd;"
d="M 28820001.000000,8795001.000000
29419999.000000,8795001.000000
29419999.000000,10794999.000000
28820001.000000,10794999.000000
Z" /> 
<path style="fill:#000000; fill-opacity:1.0; 
stroke:#000000; stroke-width:1.000000; stroke-opacity:1; 
stroke-linecap:round; stroke-linejoin:round;fill-rule:evenodd;"
d="M 30090001.000000,8795001.000000
30689999.000000,8795001.000000
30689999.000000,10794999.000000
30090001.000000,10794999.000000
Z" /> 
</g>
<g >
</g>
<g style="fill:#000000; fill-opacity:1.0; 
stroke:#000000; stroke-width:1.000000; stroke-opacity:1; 
stroke-linecap:round; stroke-linejoin:round;">
<path style="fill:#000000; fill-opacity:1.0; 
stroke:#000000; stroke-width:1.000000; stroke-opacity:1; 
stroke-linecap:round; stroke-linejoin:round;fill-rule:evenodd;"
d="M 19275001.000000,5845001.000000
20274999.000000,5845001.000000
20274999.000000,8994999.000000
19275001.000000,8994999.000000
Z" /> 
<path style="fill:#000000; fill-opacity:1.0; 
stroke:#000000; stroke-width:1.000000; stroke-opacity:1; 
stroke-linecap:round; stroke-linejoin:round;fill-rule:evenodd;"
d="M 19275001.000000,10895001.000000
20274999.000000,10895001.000000
20274999.000000,14044999.000000
19275001.000000,14044999.000000
Z" /> 
<path style="fill:#000000; fill-opacity:1.0; 
stroke:#000000; stroke-width:1.000000; stroke-opacity:1; 
stroke-linecap:round; stroke-linejoin:round;fill-rule:evenodd;"
d="M 16735001.000000,5845001.000000
17734999.000000,5845001.000000
17734999.000000,8994999.000000
16735001.000000,8994999.000000
Z" /> 
<path style="fill:#000000; fill-opacity:1.0; 
stroke:#000000; stroke-width:1.000000; stroke-opacity:1; 
stroke-linecap:round; stroke-linejoin:round;fill-rule:evenodd;"
d="M 16735001.000000,10895001.000000
17734999.000000,10895001.000000
17734999.000000,14044999.000000
16735001.000000,14044999.000000
Z" /> 
</g>
<g >
</g>
<g style="fill:#000000; fill-opacity:1.0; 
stroke:#000000; stroke-width:1.000000; stroke-opacity:1; 
stroke-linecap:round; stroke-linejoin:round;">
<path style="fill:#000000; fill-opacity:1.0; 
stroke:#000000; stroke-width:1.000000; stroke-opacity:1; 
stroke-linecap:round; stroke-linejoin:round;fill-rule:evenodd;"
d="M 4180001.000000,9569999.000000
4180001.000000,8570001.000000
10679999.000000,8570001.000000
10679999.000000,9569999.000000
Z" /> 
<path style="fill:#000000; fill-opacity:1.0; 
stroke:#000000; stroke-width:1.000000; stroke-opacity:1; 
stroke-linecap:round; stroke-linejoin:round;fill-rule:evenodd;"
d="M 4180001.000000,11569999.000000
4180001.000000,10570001.000000
10679999.000000,10570001.000000
10679999.000000,11569999.000000
Z" /> 
<path style="fill:#000000; fill-opacity:1.0; 
stroke:#000000; stroke-width:1.000000; stroke-opacity:1; 
stroke-linecap:round; stroke-linejoin:round;fill-rule:evenodd;"
d="M 3180001.000000,7319999.000000
3180001.000000,5820001.000000
10679999.000000,5820001.000000
10679999.000000,7319999.000000
Z" /> 
<path style="fill:#000000; fill-opacity:1.0; 
stroke:#000000; stroke-width:1.000000; stroke-opacity:1; 
stroke-linecap:round; stroke-linejoin:round;fill-rule:evenodd;"
d="M 3180001.000000,14319999.000000
3180001.000000,12820001.000000
10679999.000000,12820001.000000
10679999.000000,14319999.000000
Z" /> 
</g>
<g >
</g>
<g style="fill:#000000; fill-opacity:1.0; 
stroke:#000000; stroke-width:1.000000; stroke-opacity:1; 
stroke-linecap:round; stroke-linejoin:round;">
<path style="fill:#000000; fill-opacity:1.0; 
stroke:#000000; stroke-width:1.000000; stroke-opacity:1; 
stroke-linecap:round; stroke-linejoin:round;fill-rule:evenodd;"
d="M 28680000.000000,5520000.000000
28737403.000000,5531418.000000
28786066.000000,5563934.000000
28818582.000000,5612597.000000
28830000.000000,5670000.000000
28830000.000000,6845000.000000
28818582.000000,6902403.000000
28786066.000000,6951066.000000
28737403.000000,6983582.000000
28680000.000000,6995000.000000
28380000.000000,6995000.000000
28322597.000000,6983582.000000
28273934.000000,6951066.000000
28241418.000000,6902403.000000
28230000.000000,6845000.000000
28230000.000000,5670000.000000
28241418.000000,5612597.000000
28273934.000000,5563934.000000
28322597.000000,5531418.000000
28380000.000000,5520000.000000
Z" /> 
<path style="fill:#000000; fill-opacity:1.0; 
stroke:#000000; stroke-width:1.000000; stroke-opacity:1; 
stroke-linecap:round; stroke-linejoin:round;fill-rule:evenodd;"
d="M 27730000.000000,3645000.000000
27787403.000000,3656418.000000
27836066.000000,3688934.000000
27868582.000000,3737597.000000
27880000.000000,3795000.000000
27880000.000000,4970000.000000
27868582.000000,5027403.000000
27836066.000000,5076066.000000
27787403.000000,5108582.000000
27730000.000000,5120000.000000
27430000.000000,5120000.000000
27372597.000000,5108582.000000
27323934.000000,5076066.000000
27291418.000000,5027403.000000
27280000.000000,4970000.000000
27280000.000000,3795000.000000
27291418.000000,3737597.000000
27323934.000000,3688934.000000
27372597.000000,3656418.000000
27430000.000000,3645000.000000
Z" /> 
<path style="fill:#000000; fill-opacity:1.0; 
stroke:#000000; stroke-width:1.000000; stroke-opacity:1; 
stroke-linecap:round; stroke-linejoin:round;fill-rule:evenodd;"
d="M 29630000.000000,3645000.000000
29687403.000000,3656418.000000
29736066.000000,3688934.000000
29768582.000000,3737597.000000
29780000.000000,3795000.000000
29780000.000000,4970000.000000
29768582.000000,5027403.000000
29736066.000000,5076066.000000
29687403.000000,5108582.000000
29630000.000000,5120000.000000
29330000.000000,5120000.000000
29272597.000000,5108582.000000
29223934.000000,5076066.000000
29191418.000000,5027403.000000
29180000.000000,4970000.000000
29180000.000000,3795000.000000
29191418.000000,3737597.000000
29223934.000000,3688934.000000
29272597.000000,3656418.000000
29330000.000000,3645000.000000
Z" /> 
</g>
<g >
</g>
<g >
</g>
<g style="fill:#000000; fill-opacity:1.0; 
stroke:#000000; stroke-width:1.000000; stroke-opacity:1; 
stroke-linecap:round; stroke-linejoin:round;">
</g>
<g style="fill:#000000; fill-opacity:1.0; 
stroke:#000000; stroke-width:500000.000000; stroke-opacity:1; 
stroke-linecap:round; stroke-linejoin:round;">
</g>
<g style="fill:#000000; fill-opacity:0.0; 
stroke:#000000; stroke-width:500000.000000; stroke-opacity:1; 
stroke-linecap:round; stroke-linejoin:round;">
<path d="M21630000 7420000
L22770000 8560000
" />
<path d="M22770000 8560000
L22770000 9795000
" />
<path d="M19775000 7420000
L21630000 7420000
" />
</g>
<g style="fill:#000000; fill-opacity:0.0; 
stroke:#000000; stroke-width:400000.000000; stroke-opacity:1; 
stroke-linecap:round; stroke-linejoin:round;">
<path d="M40180000 13470000
L40480000 13770000
" />
<path d="M30390000 13760000
L30680000 13470000
" />
<path d="M30680000 13470000
L40180000 13470000
" />
<path d="M30390000 14745000
L30390000 13760000
" />
<path d="M40480000 13770000
L40480000 14970000
" />
</g>
<g style="fill:#000000; fill-opacity:0.0; 
stroke:#000000; stroke-width:500000.000000; stroke-opacity:1; 
stroke-linecap:round; stroke-linejoin:round;">
<path d="M47180000 2970000
L47780000 3570000
" />
<path d="M40580000 2970000
L47180000 2970000
" />
<path d="M37080000 2970000
L40580000 2970000
" />
<path d="M33680000 2970000
L37080000 2970000
" />
<path d="M33680000 2970000
L33180000 2970000
" />
<path d="M33530000 2820000
L33680000 2970000
" />
<path d="M29530000 2820000
L33530000 2820000
" />
<path d="M29092500 6820000
L28530000 6257500
" />
<path d="M35680000 4970000
L33680000 6970000
" />
<path d="M44580000 4970000
L35680000 4970000
" />
<path d="M33680000 6970000
L33530000 6820000
" />
<path d="M45480000 5870000
L44580000 4970000
" />
<path d="M45480000 8430000
L45480000 5870000
" />
<path d="M45700000 8650000
L45480000 8430000
" />
<path d="M33530000 6820000
L29092500 6820000
" />
</g>
<g style="fill:#000000; fill-opacity:0.0; 
stroke:#000000; stroke-width:400000.000000; stroke-opacity:1; 
stroke-linecap:round; stroke-linejoin:round;">
<path d="M28330000 12670000
L35080000 12670000
" />
<path d="M35080000 12670000
L35380000 12370000
" />
<path d="M27850000 13150000
L28330000 12670000
" />
<path d="M27850000 14745000
L27850000 13150000
" />
</g>
<g style="fill:#000000; fill-opacity:0.0; 
stroke:#000000; stroke-width:500000.000000; stroke-opacity:1; 
stroke-linecap:round; stroke-linejoin:round;">
<path d="M35380000 9570000
L35380000 12370000
" />
<path d="M30930000 7820000
L32080000 8970000
" />
<path d="M32080000 8970000
L34780000 8970000
" />
<path d="M26430000 7820000
L30930000 7820000
" />
<path d="M34780000 8970000
L35380000 9570000
" />
<path d="M24280000 6820000
L25430000 6820000
" />
<path d="M25430000 6820000
L26430000 7820000
" />
</g>
<g style="fill:#000000; fill-opacity:0.0; 
stroke:#000000; stroke-width:400000.000000; stroke-opacity:1; 
stroke-linecap:round; stroke-linejoin:round;">
<path d="M38880000 16870000
L37080000 15070000
" />
<path d="M42830978 15370000
L41330978 16870000
" />
<path d="M41330978 16870000
L38880000 16870000
" />
<path d="M45480000 15370000
L42830978 15370000
" />
<path d="M47120000 13730000
L45480000 15370000
" />
<path d="M47780000 13730000
L47120000 13730000
" />
<path d="M45080000 14570000
L40880000 14570000
" />
</g>
<g style="fill:#000000; fill-opacity:0.0; 
stroke:#000000; stroke-width:500000.000000; stroke-opacity:1; 
stroke-linecap:round; stroke-linejoin:round;">
<path d="M43780000 10570000
L45700000 8650000
" />
<path d="M43780000 12970000
L43780000 10570000
" />
<path d="M42980000 17770000
L43780000 16970000
" />
<path d="M15380000 17770000
L42980000 17770000
" />
<path d="M6930000 13570000
L11180000 13570000
" />
<path d="M11180000 13570000
L15380000 17770000
" />
</g>
<g style="fill:#000000; fill-opacity:0.0; 
stroke:#000000; stroke-width:400000.000000; stroke-opacity:1; 
stroke-linecap:round; stroke-linejoin:round;">
<path d="M45580000 14070000
L45080000 14570000
" />
<path d="M40380000 14570000
L39980000 14970000
" />
<path d="M45760000 11190000
L45580000 11370000
" />
<path d="M47780000 11190000
L45760000 11190000
" />
<path d="M45580000 11370000
L45580000 14070000
" />
</g>
<g style="fill:#000000; fill-opacity:0.0; 
stroke:#000000; stroke-width:350000.000000; stroke-opacity:1; 
stroke-linecap:round; stroke-linejoin:round;">
<path d="M22380000 11870000
L23980000 11870000
" />
<path d="M23980000 11870000
L25310000 13200000
" />
<path d="M21680000 10070000
L21680000 11170000
" />
<path d="M21180000 9570000
L21680000 10070000
" />
<path d="M25310000 13200000
L25310000 14745000
" />
<path d="M11180000 9570000
L21180000 9570000
" />
<path d="M10680000 9070000
L11180000 9570000
" />
<path d="M21680000 11170000
L22380000 11870000
" />
<path d="M24040000 13430000
L24040000 14745000
" />
<path d="M20930000 11870000
L21830000 12770000
" />
<path d="M23380000 12770000
L24040000 13430000
" />
<path d="M20930000 10470000
L20930000 11870000
" />
<path d="M10880000 10320000
L20780000 10320000
" />
<path d="M20780000 10320000
L20930000 10470000
" />
<path d="M21830000 12770000
L23380000 12770000
" />
<path d="M10130000 11070000
L10880000 10320000
" />
</g>
<g style="fill:#000000; fill-opacity:0.0; 
stroke:#000000; stroke-width:500000.000000; stroke-opacity:1; 
stroke-linecap:round; stroke-linejoin:round;">
<path d="M21380000 14745000
L22770000 14745000
" />
<path d="M19775000 13140000
L21380000 14745000
" />
<path d="M19775000 12470000
L19775000 13140000
" />
<path d="M30480000 11270000
L33280000 11270000
" />
<path d="M30390000 11180000
L30480000 11270000
" />
<path d="M30390000 9795000
L30390000 11180000
" />
<path d="M17310000 12470000
L16785000 11945000
" />
<path d="M16785000 11945000
L13980000 11945000
" />
<path d="M17680000 16670000
L17310000 16300000
" />
<path d="M17310000 16300000
L17310000 12470000
" />
<path d="M26580000 15570000
L25480000 16670000
" />
<path d="M26580000 14745000
L26580000 15570000
" />
<path d="M25480000 16670000
L17680000 16670000
" />
</g>
<g style="fill:#000000; fill-opacity:0.0; 
stroke:#000000; stroke-width:400000.000000; stroke-opacity:1; 
stroke-linecap:round; stroke-linejoin:round;">
<path d="M40080000 10870000
L39980000 10970000
" />
<path d="M40580000 6970000
L40580000 10870000
" />
<path d="M37080000 6970000
L37080000 11070000
" />
<path d="M33380000 15370000
L33280000 15270000
" />
<path d="M37080000 15170000
L33880000 15170000
" />
</g>
<g style="fill:#000000; fill-opacity:0.0; 
stroke:#000000; stroke-width:500000.000000; stroke-opacity:1; 
stroke-linecap:round; stroke-linejoin:round;">
<path d="M45700000 8650000
L47780000 8650000
" />
<path d="M26717500 4382500
L24280000 6820000
" />
<path d="M27580000 4382500
L26717500 4382500
" />
<path d="M29480000 4382500
L29480000 2870000
" />
<path d="M24280000 2820000
L29530000 2820000
" />
<path d="M29480000 2870000
L29530000 2820000
" />
<path d="M22030000 4320000
L18186000 4320000
" />
<path d="M22030000 4570000
L22030000 4320000
" />
<path d="M18186000 4320000
L17310000 5196000
" />
<path d="M24280000 6820000
L22030000 4570000
" />
<path d="M16030000 2320000
L23780000 2320000
" />
<path d="M23780000 2320000
L24280000 2820000
" />
<path d="M13980000 4370000
L16030000 2320000
" />
<path d="M13980000 7945000
L13980000 4370000
" />
<path d="M17310000 7420000
L17310000 5196000
" />
</g>
<g style="fill:#000000; fill-opacity:0.0; 
stroke:#000000; stroke-width:250000.000000; stroke-opacity:1; 
stroke-linecap:round; stroke-linejoin:round;">
<path d="M7430000 9070000
L10680000 9070000
" />
</g>
<g style="fill:#000000; fill-opacity:0.0; 
stroke:#000000; stroke-width:500000.000000; stroke-opacity:1; 
stroke-linecap:round; stroke-linejoin:round;">
<path d="M12605000 6570000
L13980000 7945000
" />
<path d="M6930000 6570000
L12605000 6570000
" />
<path d="M19925000 7495000
L19850000 7420000
" />
<path d="M57580000 3970000
L57980000 3570000
" />
<path d="M77280000 5570000
L77280000 10070000
" />
<path d="M73280000 5570000
L77280000 5570000
" />
<path d="M63080000 3570000
L71280000 3570000
" />
<path d="M47780000 3570000
L52780000 3570000
" />
<path d="M77280000 10070000
L77240000 10110000
" />
<path d="M52780000 3570000
L53180000 3970000
" />
<path d="M53180000 3970000
L57580000 3970000
" />
<path d="M57980000 3570000
L63080000 3570000
" />
<path d="M77240000 10110000
L75280000 10110000
" />
<path d="M71280000 3570000
L73280000 5570000
" />
<path d="M63080000 8650000
L70200000 8650000
" />
<path d="M57280000 4970000
L61360000 8650000
" />
<path d="M47780000 8650000
L49200000 8650000
" />
<path d="M71280000 7570000
L75280000 7570000
" />
<path d="M49200000 8650000
L53280000 4970000
" />
<path d="M70200000 8650000
L71280000 7570000
" />
<path d="M61360000 8650000
L63080000 8650000
" />
<path d="M53280000 4970000
L57280000 4970000
" />
</g>
<g style="fill:#000000; fill-opacity:0.0; 
stroke:#000000; stroke-width:250000.000000; stroke-opacity:1; 
stroke-linecap:round; stroke-linejoin:round;">
<path d="M7430000 11070000
L10130000 11070000
" />
</g>
<g style="fill:#000000; fill-opacity:0.0; 
stroke:#000000; stroke-width:500000.000000; stroke-opacity:1; 
stroke-linecap:round; stroke-linejoin:round;">
<path d="M71280000 15570000
L70780000 15570000
" />
<path d="M70780000 15570000
L67780000 15570000
" />
</g>
<g style="fill:#000000; fill-opacity:0.0; 
stroke:#000000; stroke-width:400000.000000; stroke-opacity:1; 
stroke-linecap:round; stroke-linejoin:round;">
<path d="M57780000 16070000
L60120000 13730000
" />
</g>
<g style="fill:#000000; fill-opacity:0.0; 
stroke:#000000; stroke-width:500000.000000; stroke-opacity:1; 
stroke-linecap:round; stroke-linejoin:round;">
<path d="M65940000 13730000
L63080000 13730000
" />
<path d="M74200000 12650000
L71280000 15570000
" />
<path d="M75280000 12650000
L74200000 12650000
" />
</g>
<g style="fill:#000000; fill-opacity:0.0; 
stroke:#000000; stroke-width:400000.000000; stroke-opacity:1; 
stroke-linecap:round; stroke-linejoin:round;">
<path d="M50440000 13730000
L52780000 16070000
" />
</g>
<g style="fill:#000000; fill-opacity:0.0; 
stroke:#000000; stroke-width:500000.000000; stroke-opacity:1; 
stroke-linecap:round; stroke-linejoin:round;">
<path d="M67780000 15570000
L65940000 13730000
" />
</g>
<g style="fill:#000000; fill-opacity:0.0; 
stroke:#000000; stroke-width:400000.000000; stroke-opacity:1; 
stroke-linecap:round; stroke-linejoin:round;">
<path d="M60120000 13730000
L63080000 13730000
" />
<path d="M52780000 16070000
L57780000 16070000
" />
<path d="M47780000 13730000
L50440000 13730000
" />
<path d="M61660000 11190000
L57280000 15070000
" />
<path d="M53280000 15070000
L49280000 11070000
" />
<path d="M63080000 11190000
L61660000 11190000
" />
<path d="M49280000 11070000
L48300000 11070000
" />
<path d="M48300000 11070000
L48180000 11190000
" />
</g>
<g style="fill:#000000; fill-opacity:0.0; 
stroke:#000000; stroke-width:500000.000000; stroke-opacity:1; 
stroke-linecap:round; stroke-linejoin:round;">
<path d="M70780000 11570000
L70400000 11190000
" />
</g>
<g style="fill:#000000; fill-opacity:0.0; 
stroke:#000000; stroke-width:400000.000000; stroke-opacity:1; 
stroke-linecap:round; stroke-linejoin:round;">
<path d="M48180000 11190000
L47780000 11190000
" />
<path d="M57280000 15070000
L53280000 15070000
" />
</g>
<g style="fill:#000000; fill-opacity:0.0; 
stroke:#000000; stroke-width:500000.000000; stroke-opacity:1; 
stroke-linecap:round; stroke-linejoin:round;">
<path d="M70400000 11190000
L63080000 11190000
" />
<path d="M19875000 12445000
L19850000 12470000
" />
</g>
<g >
</g>
</g>
<g style="fill:#FFFFFF; fill-opacity:0.0; 
stroke:#FFFFFF; stroke-width:500000.000000; stroke-opacity:1; 
stroke-linecap:round; stroke-linejoin:round;">
</g>
<g style="fill:#000000; fill-opacity:0.0; 
stroke:#000000; stroke-width:500000.000000; stroke-opacity:1; 
stroke-linecap:round; stroke-linejoin:round;">
</g> 
</svg>
