<?xml version="1.0" encoding="UTF-8" standalone="no"?>
<svg
   xmlns:dc="http://purl.org/dc/elements/1.1/"
   xmlns:cc="http://creativecommons.org/ns#"
   xmlns:rdf="http://www.w3.org/1999/02/22-rdf-syntax-ns#"
   xmlns:svg="http://www.w3.org/2000/svg"
   xmlns="http://www.w3.org/2000/svg"
   xmlns:sodipodi="http://sodipodi.sourceforge.net/DTD/sodipodi-0.dtd"
   xmlns:inkscape="http://www.inkscape.org/namespaces/inkscape"
   version="1.1"
   width="8.229600cm"
   height="2.021840cm"
   viewBox="0 0 82296000 20218400"
   id="svg80"
   sodipodi:docname="outline.svg"
   inkscape:version="1.0.1 (c497b03c, 2020-09-10)">
  <metadata
     id="metadata86">
    <rdf:RDF>
      <cc:Work
         rdf:about="">
        <dc:format>image/svg+xml</dc:format>
        <dc:type
           rdf:resource="http://purl.org/dc/dcmitype/StillImage" />
        <dc:title>SVG Picture created as SAMD-UPDI-breakaway-Edge_Cuts.svg date 2022/02/15 23:05:27 </dc:title>
      </cc:Work>
    </rdf:RDF>
  </metadata>
  <defs
     id="defs84" />
  <sodipodi:namedview
     pagecolor="#ffffff"
     bordercolor="#666666"
     borderopacity="1"
     objecttolerance="10"
     gridtolerance="10"
     guidetolerance="10"
     inkscape:pageopacity="0"
     inkscape:pageshadow="2"
     inkscape:window-width="1440"
     inkscape:window-height="855"
     id="namedview82"
     showgrid="false"
     inkscape:zoom="9.9216583"
     inkscape:cx="23.719854"
     inkscape:cy="40.796928"
     inkscape:window-x="0"
     inkscape:window-y="23"
     inkscape:window-maximized="0"
     inkscape:current-layer="svg80"
     inkscape:document-rotation="0" />
  <title
     id="title2">SVG Picture created as SAMD-UPDI-breakaway-Edge_Cuts.svg date 2022/02/15 23:05:27 </title>
  <desc
     id="desc4">Picture generated by PCBNEW </desc>
  <g
     style="fill:#000000; fill-opacity:1.000000;stroke:#000000; stroke-opacity:1.000000; stroke-linecap:round; stroke-linejoin:round;"
     transform="translate(0 0) scale(1 1)"
     id="g6" />
  <g
     style="fill:#000000; fill-opacity:0.0;  stroke:#000000; stroke-width:0.000000; stroke-opacity:1;  stroke-linecap:round; stroke-linejoin:round;"
     id="g8" />
  <g
     style="fill:#000000; fill-opacity:0.0;  stroke:#000000; stroke-width:50000.000000; stroke-opacity:1;  stroke-linecap:round; stroke-linejoin:round;"
     id="g78">
    <path
       d="M80550000 14070000 L80550000 6070000 "
       id="path10" />
    <path
       d="M14550000 1570000 L12050000 4070000 "
       id="path12" />
    <path
       d="M 11321567,4810623.7 2251494,4813539"
       id="path14"
       sodipodi:nodetypes="cc" />
    <path
       d="M53050000.000000 1570000.000000 A1500000.000000 1500000.000000 0.0 0 0 56050000.000000 1570000.000000"
       id="path16" />
    <path
       d="M56050000.000000 18570000.000000 A1500000.000000 1500000.000000 0.0 0 0 53050000.000000 18570000.000000"
       id="path18" />
    <path
       d="M80550000 6070000 L76050000 1570000 "
       id="path20" />
    <path
       d="M53050000 12770000 L53050000 7570000 "
       id="path22" />
    <path
       d="M56050000 18570000 L76050000 18570000 "
       id="path24" />
    <path
       d="M56050000 7570000 L56050000 12770000 "
       id="path26" />
    <path
       d="m 2251494,4813539 0,10400000"
       id="path28"
       sodipodi:nodetypes="cc" />
    <path
       d="M53050000 1570000 L14550000 1570000 "
       id="path30" />
    <path
       d="M53050000.000000 12770000.000000 A1500000.000000 1500000.000000 0.0 0 0 56050000.000000 12770000.000000"
       id="path32" />
    <path
       d="M76050000 18570000 L80550000 14070000 "
       id="path34" />
    <path
       d="M56050000 1570000 L76050000 1570000 "
       id="path36" />
    <path
       d="M11550000 16070000 L14050000 18570000 "
       id="path38" />
    <path
       d="m 2251494,15213539 8419939,89933"
       id="path40"
       sodipodi:nodetypes="cc" />
    <path
       d="M56050000.000000 7570000.000000 A1500000.000000 1500000.000000 0.0 0 0 53050000.000000 7570000.000000"
       id="path42" />
    <path
       d="M53050000 18570000 L14050000 18570000 "
       id="path44" />
    <g
       id="g46" />
    <g
       id="g48" />
    <g
       id="g50" />
    <g
       id="g52" />
    <g
       id="g54" />
    <g
       id="g56" />
    <g
       id="g58" />
    <g
       id="g60" />
    <g
       id="g62" />
    <g
       id="g64" />
    <g
       id="g66" />
    <g
       id="g68" />
    <g
       id="g70" />
    <g
       id="g72" />
    <g
       id="g74" />
    <g
       id="g76" />
  </g>
  <path
     style="fill:#000000;fill-opacity:1;stroke:#000000;stroke-width:0;stroke-linejoin:round;stroke-miterlimit:4;stroke-dasharray:none"
     d="M 55.093373,5.8649312 C 51.89938,9.0634436 45.9841,14.983306 42.790174,18.181885 l -34.2805903,0.01102 c -0.095452,2.147468 0.090588,2.96546 -0.109599,4.672359 l 0.109599,34.634728 c 1.4419412,0.700189 5.7897783,0.139716 7.4966783,0.339903 h 24.326715 c 3.281991,3.201796 9.552979,9.42846 12.918409,12.505429 H 200.33803 c 0.57899,-1.127335 0.48767,-2.78001 1.59096,-3.769936 2.21477,-2.753012 7.21543,-2.61553 8.93541,0.635581 1.0459,0.938343 0.35269,3.528411 2.23857,3.134355 h 74.01872 c 5.89306,-5.601088 11.57072,-11.524885 17.38139,-17.249559 0.20447,-9.915016 0.0291,-19.905469 0.0877,-29.849455 -5.6011,-5.893058 -11.52489,-11.570725 -17.24957,-17.3813778 -16.1394,-0.204484 -32.35418,-0.029429 -48.52263,-0.087686 h -26.59589 c -0.75802,1.3248224 -0.88399,3.2550516 -2.3085,4.2754238 -2.76013,2.724563 -7.99539,1.375846 -9.03341,-2.3841502 -0.34737,-0.8634601 0.18978,-2.3699617 -1.34567,-1.8912736 H 55.305443 Z M 206.18435,23.064632 c 3.12523,-0.114416 5.85675,2.824747 5.50819,5.90937 0.16424,6.894765 0.34687,13.871991 -0.11519,20.720334 -0.91024,3.756562 -6.10608,5.579556 -8.96865,2.832328 -1.85249,-1.317358 -2.07857,-3.64207 -1.9503,-5.72696 -0.1451,-6.5667 -0.0715,-13.135525 -0.09,-19.703221 1.07009,-2.214145 2.99913,-4.104623 5.61593,-4.031851 z"
     id="path911"
     transform="scale(264583.33)"
     sodipodi:nodetypes="cccccccccccccccccccccccscccccss" />
</svg>
