<?xml version="1.0" encoding="UTF-8" standalone="no"?>
<svg
   xmlns:dc="http://purl.org/dc/elements/1.1/"
   xmlns:cc="http://creativecommons.org/ns#"
   xmlns:rdf="http://www.w3.org/1999/02/22-rdf-syntax-ns#"
   xmlns:svg="http://www.w3.org/2000/svg"
   xmlns="http://www.w3.org/2000/svg"
   xmlns:sodipodi="http://sodipodi.sourceforge.net/DTD/sodipodi-0.dtd"
   xmlns:inkscape="http://www.inkscape.org/namespaces/inkscape"
   version="1.1"
   width="8.229600cm"
   height="2.021840cm"
   viewBox="0 0 82296000 20218400"
   id="svg80"
   sodipodi:docname="outline.svg"
   inkscape:version="1.0.1 (3bc2e813f5, 2020-09-07)">
  <metadata
     id="metadata86">
    <rdf:RDF>
      <cc:Work
         rdf:about="">
        <dc:format>image/svg+xml</dc:format>
        <dc:type
           rdf:resource="http://purl.org/dc/dcmitype/StillImage" />
        <dc:title>SVG Picture created as SAMD-UPDI-breakaway-Edge_Cuts.svg date 2022/02/18 00:53:48 </dc:title>
      </cc:Work>
    </rdf:RDF>
  </metadata>
  <defs
     id="defs84" />
  <sodipodi:namedview
     pagecolor="#ffffff"
     bordercolor="#666666"
     borderopacity="1"
     objecttolerance="10"
     gridtolerance="10"
     guidetolerance="10"
     inkscape:pageopacity="0"
     inkscape:pageshadow="2"
     inkscape:window-width="1878"
     inkscape:window-height="952"
     id="namedview82"
     showgrid="false"
     inkscape:zoom="3.4079218"
     inkscape:cx="113.55894"
     inkscape:cy="-20.185356"
     inkscape:window-x="33"
     inkscape:window-y="48"
     inkscape:window-maximized="0"
     inkscape:current-layer="svg80" />
  <title
     id="title2">SVG Picture created as SAMD-UPDI-breakaway-Edge_Cuts.svg date 2022/02/18 00:53:48 </title>
  <desc
     id="desc4">Picture generated by PCBNEW </desc>
  <g
     style="fill:#000000; fill-opacity:1.000000;stroke:#000000; stroke-opacity:1.000000; stroke-linecap:round; stroke-linejoin:round;"
     transform="translate(0 0) scale(1 1)"
     id="g6" />
  <g
     style="fill:#000000; fill-opacity:0.0;  stroke:#000000; stroke-width:0.000000; stroke-opacity:1;  stroke-linecap:round; stroke-linejoin:round;"
     id="g8" />
  <g
     style="fill:#000000; fill-opacity:0.0;  stroke:#000000; stroke-width:50000.000000; stroke-opacity:1;  stroke-linecap:round; stroke-linejoin:round;"
     id="g78">
    <path
       d="M12250000 15270000 L15550000 18570000 "
       id="path10" />
    <path
       d="M2250000 15270000 L12250000 15270000 "
       id="path12" />
    <path
       d="M2250000 4870000 L2250000 15270000 "
       id="path14" />
    <path
       d="M12250000 4870000 L2250000 4870000 "
       id="path16" />
    <path
       d="M15550000 1570000 L12250000 4870000 "
       id="path18" />
    <path
       d="M80550000 14070000 L80550000 6070000 "
       id="path20" />
    <path
       d="M53050000.000000 1570000.000000 A1500000.000000 1500000.000000 0.0 0 0 56050000.000000 1570000.000000"
       id="path22" />
    <path
       d="M56050000.000000 18570000.000000 A1500000.000000 1500000.000000 0.0 0 0 53050000.000000 18570000.000000"
       id="path24" />
    <path
       d="M80550000 6070000 L76050000 1570000 "
       id="path26" />
    <path
       d="M53050000 12770000 L53050000 7570000 "
       id="path28" />
    <path
       d="M56050000 18570000 L76050000 18570000 "
       id="path30" />
    <path
       d="M56050000 7570000 L56050000 12770000 "
       id="path32" />
    <path
       d="M53050000 1570000 L15550000 1570000 "
       id="path34" />
    <path
       d="M53050000.000000 12770000.000000 A1500000.000000 1500000.000000 0.0 0 0 56050000.000000 12770000.000000"
       id="path36" />
    <path
       d="M76050000 18570000 L80550000 14070000 "
       id="path38" />
    <path
       d="M56050000 1570000 L76050000 1570000 "
       id="path40" />
    <path
       d="M56050000.000000 7570000.000000 A1500000.000000 1500000.000000 0.0 0 0 53050000.000000 7570000.000000"
       id="path42" />
    <path
       d="M53050000 18570000 L15550000 18570000 "
       id="path44" />
    <g
       id="g46" />
    <g
       id="g48" />
    <g
       id="g50" />
    <g
       id="g52" />
    <g
       id="g54" />
    <g
       id="g56" />
    <g
       id="g58" />
    <g
       id="g60" />
    <g
       id="g62" />
    <g
       id="g64" />
    <g
       id="g66" />
    <g
       id="g68" />
    <g
       id="g70" />
    <g
       id="g72" />
    <g
       id="g74" />
    <g
       id="g76" />
  </g>
  <path
     style="fill:#000000;stroke:#000000;stroke-width:0.00557525;stroke-linejoin:round;fill-opacity:1"
     d="m 58.6163,6.0116482 c -4.075428,4.0788278 -8.150835,8.1576738 -12.226225,12.2365398 -12.529019,0 -25.058037,0 -37.5870562,0 -0.7001897,1.441941 -0.099551,3.581217 -0.2997382,5.288116 0,11.346113 0,22.692225 0,34.038339 1.4419411,0.700189 3.5812164,0.09955 5.2881154,0.299737 10.866226,0 21.732453,0 32.598679,0 4.163141,4.082547 8.192254,8.365726 12.438276,12.324226 47.195679,0 94.391359,0 141.587049,0 0.48788,-0.753602 0.1814,-2.107037 0.98059,-2.917719 2.03996,-3.848284 8.58435,-3.355453 9.93893,0.818408 0.2659,1.458182 0.8438,2.656023 2.60079,2.099311 24.49295,0 48.9859,0 73.47884,0 5.79562,-5.503069 11.3757,-11.329024 17.08853,-16.956125 0.20458,-10.012609 0.0292,-20.100683 0.0877,-30.142316 C 299.0877,17.304544 293.26175,11.72447 287.63465,6.0116482 271.53629,5.8073096 255.36266,5.9819772 239.23524,5.9239622 c -9.02004,0 -18.04008,0 -27.06012,0 -0.77895,1.461309 -1.06035,3.5370328 -2.6793,4.5373368 -2.60073,1.838132 -6.76075,1.150799 -8.20698,-1.839693 -0.75819,-0.7473243 -0.33722,-2.0421495 -0.87342,-2.6976438 -47.19569,0 -94.39137,0 -141.587049,0 z M 206.30585,23.035976 c 3.30118,-0.05582 5.90355,3.323413 5.43162,6.494589 0.11796,6.779215 0.31533,13.590927 -0.20482,20.353473 -0.84584,3.006152 -4.27801,4.580557 -7.16449,3.622076 -2.51443,-0.670318 -4.0894,-3.358076 -3.74993,-5.92359 0.0311,-6.800745 -0.32074,-13.633106 0.24419,-20.415548 0.312,-2.507353 3.07112,-4.158143 5.44343,-4.131 z"
     id="path911"
     transform="scale(264583.33)" />
</svg>
