<?xml version="1.0" encoding="UTF-8" standalone="no"?>
<svg
   xmlns:dc="http://purl.org/dc/elements/1.1/"
   xmlns:cc="http://creativecommons.org/ns#"
   xmlns:rdf="http://www.w3.org/1999/02/22-rdf-syntax-ns#"
   xmlns:svg="http://www.w3.org/2000/svg"
   xmlns="http://www.w3.org/2000/svg"
   version="1.1"
   width="8.229600cm"
   height="1.998980cm"
   viewBox="0 0 82296000 19989800"
   id="svg96">
  <metadata
     id="metadata102">
    <rdf:RDF>
      <cc:Work
         rdf:about="">
        <dc:format>image/svg+xml</dc:format>
        <dc:type
           rdf:resource="http://purl.org/dc/dcmitype/StillImage" />
        <dc:title>SVG Picture created as SAMD-UPDI-breakaway-Edge_Cuts.svg date 2022/02/18 10:57:09 </dc:title>
      </cc:Work>
    </rdf:RDF>
  </metadata>
  <defs
     id="defs100" />
  <title
     id="title10">SVG Picture created as SAMD-UPDI-breakaway-Edge_Cuts.svg date 2022/02/18 10:57:09 </title>
  <desc
     id="desc12">Picture generated by PCBNEW </desc>
  <g
     style="fill:#000000; fill-opacity:1.000000;stroke:#000000; stroke-opacity:1.000000; stroke-linecap:round; stroke-linejoin:round;"
     transform="translate(0 0) scale(1 1)"
     id="g14" />
  <g
     style="fill:#000000; fill-opacity:0.0;  stroke:#000000; stroke-width:0.000000; stroke-opacity:1;  stroke-linecap:round; stroke-linejoin:round;"
     id="g16" />
  <g
     style="fill:#000000; fill-opacity:0.0;  stroke:#000000; stroke-width:50000.000000; stroke-opacity:1;  stroke-linecap:round; stroke-linejoin:round;"
     id="g94">
    <path
       d="M53050000 1457500 L53050000 1657500 "
       id="path18" />
    <path
       d="M56050000 1457500 L56050000 1657500 "
       id="path20" />
    <path
       d="M53050000 18457500 L53050000 18257500 "
       id="path22" />
    <path
       d="M56050000 18457500 L56050000 18257500 "
       id="path24" />
    <path
       d="M80550000 13957500 L80550000 5957500 "
       id="path26" />
    <path
       d="M14550000 1457500 L12050000 3957500 "
       id="path28" />
    <path
       d="M12050000 3957500 L1450000 3957500 "
       id="path30" />
    <path
       d="M53050000.000000 1657500.000000 A1500000.000000 1500000.000000 0.0 0 0 56050000.000000 1657500.000000"
       id="path32" />
    <path
       d="M56050000.000000 18257500.000000 A1500000.000000 1500000.000000 0.0 0 0 53050000.000000 18257500.000000"
       id="path34" />
    <path
       d="M80550000 5957500 L76050000 1457500 "
       id="path36" />
    <path
       d="M53050000 12857500 L53050000 7257500 "
       id="path38" />
    <path
       d="M56050000 18457500 L76050000 18457500 "
       id="path40" />
    <path
       d="M56050000 7257500 L56050000 12857500 "
       id="path42" />
    <path
       d="M1450000 3957500 L1450000 15957500 "
       id="path44" />
    <path
       d="M53050000 1457500 L14550000 1457500 "
       id="path46" />
    <path
       d="M53050000.000000 12857500.000000 A1500000.000000 1500000.000000 0.0 0 0 56050000.000000 12857500.000000"
       id="path48" />
    <path
       d="M76050000 18457500 L80550000 13957500 "
       id="path50" />
    <path
       d="M56050000 1457500 L76050000 1457500 "
       id="path52" />
    <path
       d="M11850000 15957500 L14450000 18457500 "
       id="path54" />
    <path
       d="M1450000 15957500 L11850000 15957500 "
       id="path56" />
    <path
       d="M56050000.000000 7257500.000000 A1500000.000000 1500000.000000 0.0 0 0 53050000.000000 7257500.000000"
       id="path58" />
    <path
       d="M53050000 18457500 L14450000 18457500 "
       id="path60" />
    <g
       id="g62" />
    <g
       id="g64" />
    <g
       id="g66" />
    <g
       id="g68" />
    <g
       id="g70" />
    <g
       id="g72" />
    <g
       id="g74" />
    <g
       id="g76" />
    <g
       id="g78" />
    <g
       id="g80" />
    <g
       id="g82" />
    <g
       id="g84" />
    <g
       id="g86" />
    <g
       id="g88" />
    <g
       id="g90" />
    <g
       id="g92" />
  </g>
  <path
     style="fill:#000000;stroke:#000000;stroke-width:0.00294216"
     d="m 54.875845,5.6988211 c -3.157219,3.1598024 -6.314439,6.3196069 -9.471655,9.4794129 -13.279632,0.02017 -26.592622,-0.0402 -39.8514594,0.03017 0.020112,15.010904 -0.040225,30.055129 0.030169,45.045204 13.1063994,0 26.2127994,0 39.3191984,0 3.288576,3.160826 6.565057,6.340097 9.861261,9.489324 48.524301,-0.05516 97.076681,-0.03799 145.583441,-0.138344 -0.0832,-2.700864 1.56211,-5.477941 4.29299,-6.114749 3.06946,-0.965162 6.63494,1.148408 7.12842,4.355919 0.0933,1.107154 0.0513,2.296769 1.5679,1.78794 24.64584,0.03028 49.29667,0.08503 73.93943,0.100615 5.70219,-5.708813 11.42358,-11.404623 17.11379,-17.121554 -0.006,-10.009762 0.0121,-20.024478 -0.009,-30.031143 -5.6346,-5.628419 -11.25643,-11.275836 -16.89959,-16.8918435 -25.19885,0.020137 -50.43103,-0.040209 -75.60905,0.030169 0.54465,4.0078613 -4.05602,7.6274365 -7.78178,5.9039995 -2.31063,-0.937738 -3.90969,-3.4468172 -3.66247,-5.9341682 -48.51656,0.00603 -97.03808,-0.012066 -145.551545,0.00905 z M 206.1702,21.730428 c 2.47907,-0.191669 4.71146,1.717887 5.47561,3.962433 0.43247,8.047185 0.13069,16.125743 0.22154,24.184892 -0.7376,2.57259 -3.16802,4.646035 -5.92255,4.480042 -1.62477,-0.06309 -3.4069,-0.894323 -4.28955,-2.294109 0.0235,-0.285969 0.19291,-0.546787 -0.22109,-0.376677 -1.38529,-1.513235 -0.72847,-3.8389 -0.94868,-5.697072 0.0491,-6.6324 -0.19267,-13.282021 0.15481,-19.904022 0.5007,-2.457643 2.96006,-4.565095 5.52991,-4.355487 z"
     id="path108"
     transform="scale(264583.33)" />
</svg>
