<?xml version="1.0" encoding="UTF-8" standalone="no"?>
<svg
   xmlns:dc="http://purl.org/dc/elements/1.1/"
   xmlns:cc="http://creativecommons.org/ns#"
   xmlns:rdf="http://www.w3.org/1999/02/22-rdf-syntax-ns#"
   xmlns:svg="http://www.w3.org/2000/svg"
   xmlns="http://www.w3.org/2000/svg"
   version="1.1"
   width="8.229600cm"
   height="1.998980cm"
   viewBox="0 0 82296000 19989800"
   id="svg911">
  <metadata
     id="metadata917">
    <rdf:RDF>
      <cc:Work
         rdf:about="">
        <dc:format>image/svg+xml</dc:format>
        <dc:type
           rdf:resource="http://purl.org/dc/dcmitype/StillImage" />
        <dc:title>SVG Picture created as SAMD-UPDI-breakaway-Edge_Cuts.svg date 2022/02/18 10:43:43 </dc:title>
      </cc:Work>
    </rdf:RDF>
  </metadata>
  <defs
     id="defs915" />
  <title
     id="title833">SVG Picture created as SAMD-UPDI-breakaway-Edge_Cuts.svg date 2022/02/18 10:43:43 </title>
  <desc
     id="desc835">Picture generated by PCBNEW </desc>
  <g
     style="fill:#000000; fill-opacity:1.000000;stroke:#000000; stroke-opacity:1.000000; stroke-linecap:round; stroke-linejoin:round;"
     transform="translate(0 0) scale(1 1)"
     id="g837" />
  <g
     style="fill:#000000; fill-opacity:0.0;  stroke:#000000; stroke-width:0.000000; stroke-opacity:1;  stroke-linecap:round; stroke-linejoin:round;"
     id="g839" />
  <g
     style="fill:#000000; fill-opacity:0.0;  stroke:#000000; stroke-width:50000.000000; stroke-opacity:1;  stroke-linecap:round; stroke-linejoin:round;"
     id="g909">
    <path
       d="M80550000 13957500 L80550000 5957500 "
       id="path841" />
    <path
       d="M14550000 1457500 L12050000 3957500 "
       id="path843" />
    <path
       d="M12050000 3957500 L1450000 3957500 "
       id="path845" />
    <path
       d="M53050000.000000 1457500.000000 A1500000.000000 1500000.000000 0.0 0 0 56050000.000000 1457500.000000"
       id="path847" />
    <path
       d="M56050000.000000 18457500.000000 A1500000.000000 1500000.000000 0.0 0 0 53050000.000000 18457500.000000"
       id="path849" />
    <path
       d="M80550000 5957500 L76050000 1457500 "
       id="path851" />
    <path
       d="M53050000 12657500 L53050000 7457500 "
       id="path853" />
    <path
       d="M56050000 18457500 L76050000 18457500 "
       id="path855" />
    <path
       d="M56050000 7457500 L56050000 12657500 "
       id="path857" />
    <path
       d="M1450000 3957500 L1450000 15957500 "
       id="path859" />
    <path
       d="M53050000 1457500 L14550000 1457500 "
       id="path861" />
    <path
       d="M53050000.000000 12657500.000000 A1500000.000000 1500000.000000 0.0 0 0 56050000.000000 12657500.000000"
       id="path863" />
    <path
       d="M76050000 18457500 L80550000 13957500 "
       id="path865" />
    <path
       d="M56050000 1457500 L76050000 1457500 "
       id="path867" />
    <path
       d="M11550000 15957500 L14050000 18457500 "
       id="path869" />
    <path
       d="M1450000 15957500 L11550000 15957500 "
       id="path871" />
    <path
       d="M56050000.000000 7457500.000000 A1500000.000000 1500000.000000 0.0 0 0 53050000.000000 7457500.000000"
       id="path873" />
    <path
       d="M53050000 18457500 L14050000 18457500 "
       id="path875" />
    <g
       id="g877" />
    <g
       id="g879" />
    <g
       id="g881" />
    <g
       id="g883" />
    <g
       id="g885" />
    <g
       id="g887" />
    <g
       id="g889" />
    <g
       id="g891" />
    <g
       id="g893" />
    <g
       id="g895" />
    <g
       id="g897" />
    <g
       id="g899" />
    <g
       id="g901" />
    <g
       id="g903" />
    <g
       id="g905" />
    <g
       id="g907" />
  </g>
  <path
     style="fill:#000000;fill-opacity:1;stroke:#000000;stroke-width:0.00275928"
     d="m 54.964282,5.5210841 c -3.151491,3.1536273 -6.302974,6.3072649 -9.454447,9.4609129 -13.252499,0 -26.504998,0 -39.757497,0 -0.4704212,1.21012 -0.064227,2.783346 -0.2000748,4.132051 0,13.658442 0,27.316885 0,40.975327 1.2101199,0.470422 2.7833457,0.06423 4.1320507,0.200076 11.3210021,0 22.6420061,0 33.9630061,0 3.210049,3.156097 6.330657,6.446 9.595915,9.51952 48.997455,0 97.994905,0 146.992355,0 0.51057,-1.054312 0.5205,-2.504946 1.45105,-3.433205 1.96689,-2.663425 6.19328,-2.994806 8.49287,-0.596182 1.06008,1.011258 1.51749,2.460854 1.73682,3.871347 1.67595,0.374667 3.59966,0.0484 5.36927,0.15804 23.33831,0 46.67659,0 70.01488,0 5.73619,-5.541631 11.32864,-11.2984 17.0096,-16.922694 0.13675,-10.095214 0.0195,-20.240953 0.0586,-30.355598 C 298.82706,16.79449 293.07028,11.202043 287.446,5.5210841 274.82109,5.3843315 262.14564,5.5015486 249.5013,5.4624763 c -12.46313,0 -24.92623,0 -37.38934,0 -0.54952,1.1185085 -0.59921,2.6345915 -1.57069,3.6215567 -2.12533,2.706271 -6.56207,2.666391 -8.69982,-0.00849 -1.03002,-0.9494397 -1.10071,-2.4768482 -1.60586,-3.6130688 -48.37661,0 -96.75323,0 -145.12984,0 z M 206.17963,22.629302 c 2.37618,-0.09709 4.81079,1.557566 5.36322,3.893577 0.46389,5.397765 0.12802,10.885417 0.22692,16.319232 -0.13723,2.358933 0.25293,4.793186 -0.34171,7.081441 -0.88136,2.381169 -3.45513,3.783686 -5.90807,3.492621 -2.3945,-0.06725 -4.43935,-2.239315 -4.93745,-4.448528 0.052,-7.169269 -0.27632,-14.359349 0.069,-21.515528 0.0868,-2.729988 2.8795,-4.9714 5.52812,-4.822815 z"
     id="path927"
     transform="scale(264583.33)" />
</svg>
