<?xml version="1.0" encoding="UTF-8" standalone="no"?>
<svg
   xmlns:dc="http://purl.org/dc/elements/1.1/"
   xmlns:cc="http://creativecommons.org/ns#"
   xmlns:rdf="http://www.w3.org/1999/02/22-rdf-syntax-ns#"
   xmlns:svg="http://www.w3.org/2000/svg"
   xmlns="http://www.w3.org/2000/svg"
   xmlns:sodipodi="http://sodipodi.sourceforge.net/DTD/sodipodi-0.dtd"
   xmlns:inkscape="http://www.inkscape.org/namespaces/inkscape"
   version="1.1"
   width="8.229600cm"
   height="2.021840cm"
   viewBox="0 0 82296000 20218400"
   id="svg80"
   sodipodi:docname="SAMD-UPDI-breakaway-Edge_Cuts.svg"
   inkscape:version="1.0.1 (3bc2e813f5, 2020-09-07)">
  <metadata
     id="metadata86">
    <rdf:RDF>
      <cc:Work
         rdf:about="">
        <dc:format>image/svg+xml</dc:format>
        <dc:type
           rdf:resource="http://purl.org/dc/dcmitype/StillImage" />
      </cc:Work>
    </rdf:RDF>
  </metadata>
  <defs
     id="defs84" />
  <sodipodi:namedview
     pagecolor="#ffffff"
     bordercolor="#666666"
     borderopacity="1"
     objecttolerance="10"
     gridtolerance="10"
     guidetolerance="10"
     inkscape:pageopacity="0"
     inkscape:pageshadow="2"
     inkscape:window-width="1847"
     inkscape:window-height="863"
     id="namedview82"
     showgrid="false"
     inkscape:zoom="13.400206"
     inkscape:cx="280.75946"
     inkscape:cy="20.297829"
     inkscape:window-x="0"
     inkscape:window-y="0"
     inkscape:window-maximized="0"
     inkscape:current-layer="svg80" />
  <title
     id="title2">SVG Picture created as SAMD-UPDI-breakaway-Edge_Cuts.svg date 2022/01/20 05:08:00 </title>
  <desc
     id="desc4">Picture generated by PCBNEW </desc>
  <g
     style="fill:#000000; fill-opacity:1.000000;stroke:#000000; stroke-opacity:1.000000; stroke-linecap:round; stroke-linejoin:round;"
     transform="translate(0 0) scale(1 1)"
     id="g6" />
  <g
     style="fill:#000000; fill-opacity:0.0;  stroke:#000000; stroke-width:0.000000; stroke-opacity:1;  stroke-linecap:round; stroke-linejoin:round;"
     id="g8" />
  <g
     style="fill:#000000; fill-opacity:0.0;  stroke:#000000; stroke-width:50000.000000; stroke-opacity:1;  stroke-linecap:round; stroke-linejoin:round;"
     id="g78">
    <path
       d="M56050000 1570000 L76050000 1570000 "
       id="path10" />
    <path
       d="M53050000 18570000 L14050000 18570000 "
       id="path12" />
    <path
       d="M11550000 16070000 L14050000 18570000 "
       id="path14" />
    <path
       d="M1450000 16070000 L11550000 16070000 "
       id="path16" />
    <path
       d="M1450000 4070000 L1450000 16070000 "
       id="path18" />
    <path
       d="M12050000 4070000 L1450000 4070000 "
       id="path20" />
    <path
       d="M14550000 1570000 L12050000 4070000 "
       id="path22" />
    <path
       d="M53050000 1570000 L14550000 1570000 "
       id="path24" />
    <path
       d="M80550000 6070000 L76050000 1570000 "
       id="path26" />
    <path
       d="M80550000 14070000 L80550000 6070000 "
       id="path28" />
    <path
       d="M76050000 18570000 L80550000 14070000 "
       id="path30" />
    <path
       d="M56050000 18570000 L76050000 18570000 "
       id="path32" />
    <path
       d="M56050000.000000 18570000.000000 A1500000.000000 1500000.000000 0.0 0 0 53050000.000000 18570000.000000"
       id="path34" />
    <path
       d="M53050000.000000 1570000.000000 A1500000.000000 1500000.000000 0.0 0 0 56050000.000000 1570000.000000"
       id="path36" />
    <path
       d="M53050000 12770000 L53050000 7570000 "
       id="path38" />
    <path
       d="M56050000 7570000 L56050000 12770000 "
       id="path40" />
    <path
       d="M56050000.000000 7570000.000000 A1500000.000000 1500000.000000 0.0 0 0 53050000.000000 7570000.000000"
       id="path42" />
    <path
       d="M53050000.000000 12770000.000000 A1500000.000000 1500000.000000 0.0 0 0 56050000.000000 12770000.000000"
       id="path44" />
    <g
       id="g46" />
    <g
       id="g48" />
    <g
       id="g50" />
    <g
       id="g52" />
    <g
       id="g54" />
    <g
       id="g56" />
    <g
       id="g58" />
    <g
       id="g60" />
    <g
       id="g62" />
    <g
       id="g64" />
    <g
       id="g66" />
    <g
       id="g68" />
    <g
       id="g70" />
    <g
       id="g72" />
    <g
       id="g74" />
    <g
       id="g76" />
  </g>
  <path
     style="fill:#000000;fill-opacity:0.991936;stroke:#16e91f;stroke-width:0;stroke-linejoin:round"
     d="M 55.020437,5.8674112 C 51.8862,9.004087 48.751979,12.14078 45.617778,15.277492 c -13.29268,0 -26.585356,0 -39.878034,0 -0.6909687,0.904198 -0.1069661,2.50751 -0.30012,3.677295 0,13.860488 0,27.720974 0,41.581462 0.904197,0.690967 2.5075094,0.106965 3.6772945,0.300121 11.5337325,0 23.0674655,0 34.6011985,0 3.22185,3.140899 6.310388,6.480998 9.61497,9.498303 49.005443,0 98.010893,-2e-6 147.016343,0 0.54409,-0.448763 0.15861,-1.492603 0.66477,-2.116427 0.63317,-1.909547 2.37751,-3.184808 4.32184,-3.493098 3.17571,-0.696443 6.4222,2.140846 6.37961,5.34898 0.97027,0.611953 2.49618,0.08427 3.67441,0.260545 23.938,0 47.876,-2e-6 71.81401,0 4.14755,-3.855167 8.07809,-8.035328 12.14246,-12.015058 1.6923,-1.774655 3.58322,-3.416669 5.15114,-5.27441 0,-9.992184 0,-19.984365 0,-29.976548 -3.80616,-4.096781 -7.9375,-7.976373 -11.86828,-11.989911 -1.82494,-1.7417989 -3.51735,-3.682097 -5.42532,-5.2995569 -25.06373,0 -50.12745,0 -75.19119,0 -0.66274,0.6408453 -0.28877,1.9528946 -0.92633,2.7526117 -1.26967,2.4462142 -4.42513,3.6816252 -6.96955,2.5089702 -1.95981,-0.620971 -3.23646,-2.6110234 -3.46745,-4.5739443 -0.0919,-1.3958415 -2.27986,-0.3772049 -3.25515,-0.6876376 -47.38722,0 -94.77444,0 -142.161652,0 L 55.037832,5.860183 Z M 206.26938,23.090094 c 2.78595,0.03392 5.6775,2.449251 5.28695,5.414418 0.16658,7.025465 0.0735,14.06456 0.0979,21.095496 -0.83206,2.339164 -3.03117,4.470157 -5.65116,4.193021 -2.24307,0.0218 -4.2992,-1.541161 -5.0604,-3.605562 -0.41155,-5.431681 -0.15028,-10.9191 -0.27258,-16.374613 0.0544,-2.218029 -0.15481,-4.499352 0.0631,-6.678145 0.88544,-2.334165 2.90311,-4.208183 5.53623,-4.044615 z"
     id="path917"
     transform="scale(264583.33)" />
</svg>
