<?xml version="1.0" encoding="UTF-8" standalone="no"?>
<svg
   xmlns:dc="http://purl.org/dc/elements/1.1/"
   xmlns:cc="http://creativecommons.org/ns#"
   xmlns:rdf="http://www.w3.org/1999/02/22-rdf-syntax-ns#"
   xmlns:svg="http://www.w3.org/2000/svg"
   xmlns="http://www.w3.org/2000/svg"
   xmlns:sodipodi="http://sodipodi.sourceforge.net/DTD/sodipodi-0.dtd"
   xmlns:inkscape="http://www.inkscape.org/namespaces/inkscape"
   version="1.1"
   width="8.229600cm"
   height="2.021840cm"
   viewBox="0 0 82296000 20218400"
   id="svg80"
   sodipodi:docname="SAMD-UPDI-breakaway-Edge_Cuts-fill.svg"
   inkscape:version="1.0.1 (3bc2e813f5, 2020-09-07)">
  <metadata
     id="metadata86">
    <rdf:RDF>
      <cc:Work
         rdf:about="">
        <dc:format>image/svg+xml</dc:format>
        <dc:type
           rdf:resource="http://purl.org/dc/dcmitype/StillImage" />
        <dc:title>SVG Picture created as SAMD-UPDI-breakaway-Edge_Cuts.svg date 2022/01/20 03:02:09 </dc:title>
      </cc:Work>
    </rdf:RDF>
  </metadata>
  <defs
     id="defs84" />
  <sodipodi:namedview
     pagecolor="#ffffff"
     bordercolor="#666666"
     borderopacity="1"
     objecttolerance="10"
     gridtolerance="10"
     guidetolerance="10"
     inkscape:pageopacity="0"
     inkscape:pageshadow="2"
     inkscape:window-width="1868"
     inkscape:window-height="946"
     id="namedview82"
     showgrid="false"
     inkscape:zoom="3.3500515"
     inkscape:cx="157.93951"
     inkscape:cy="21.953465"
     inkscape:window-x="0"
     inkscape:window-y="0"
     inkscape:window-maximized="0"
     inkscape:current-layer="svg80" />
  <title
     id="title2">SVG Picture created as SAMD-UPDI-breakaway-Edge_Cuts.svg date 2022/01/20 03:02:09 </title>
  <desc
     id="desc4">Picture generated by PCBNEW </desc>
  <g
     style="fill:#000000; fill-opacity:1.000000;stroke:#000000; stroke-opacity:1.000000; stroke-linecap:round; stroke-linejoin:round;"
     transform="translate(0 0) scale(1 1)"
     id="g6" />
  <g
     style="fill:#000000; fill-opacity:0.0;  stroke:#000000; stroke-width:0.000000; stroke-opacity:1;  stroke-linecap:round; stroke-linejoin:round;"
     id="g8" />
  <g
     style="fill:#000000; fill-opacity:0.0;  stroke:#000000; stroke-width:50000.000000; stroke-opacity:1;  stroke-linecap:round; stroke-linejoin:round;"
     id="g78">
    <path
       d="M56050000 1570000 L76050000 1570000 "
       id="path10" />
    <path
       d="M53050000 18570000 L14050000 18570000 "
       id="path12" />
    <path
       d="M11550000 16070000 L14050000 18570000 "
       id="path14" />
    <path
       d="M1450000 16070000 L11550000 16070000 "
       id="path16" />
    <path
       d="M1450000 4070000 L1450000 16070000 "
       id="path18" />
    <path
       d="M12050000 4070000 L1450000 4070000 "
       id="path20" />
    <path
       d="M14550000 1570000 L12050000 4070000 "
       id="path22" />
    <path
       d="M53050000 1570000 L14550000 1570000 "
       id="path24" />
    <path
       d="M80550000 6070000 L76050000 1570000 "
       id="path26" />
    <path
       d="M80550000 14070000 L80550000 6070000 "
       id="path28" />
    <path
       d="M76050000 18570000 L80550000 14070000 "
       id="path30" />
    <path
       d="M56050000 18570000 L76050000 18570000 "
       id="path32" />
    <path
       d="M56050000.000000 18570000.000000 A1500000.000000 1500000.000000 0.0 0 0 53050000.000000 18570000.000000"
       id="path34" />
    <path
       d="M53050000.000000 1570000.000000 A1500000.000000 1500000.000000 0.0 0 0 56050000.000000 1570000.000000"
       id="path36" />
    <path
       d="M53050000 12770000 L53050000 7270000 "
       id="path38" />
    <path
       d="M56050000 7270000 L56050000 12770000 "
       id="path40" />
    <path
       d="M56050000.000000 7270000.000000 A1500000.000000 1500000.000000 0.0 0 0 53050000.000000 7270000.000000"
       id="path42" />
    <path
       d="M53050000.000000 12770000.000000 A1500000.000000 1500000.000000 0.0 0 0 56050000.000000 12770000.000000"
       id="path44" />
    <g
       id="g46" />
    <g
       id="g48" />
    <g
       id="g50" />
    <g
       id="g52" />
    <g
       id="g54" />
    <g
       id="g56" />
    <g
       id="g58" />
    <g
       id="g60" />
    <g
       id="g62" />
    <g
       id="g64" />
    <g
       id="g66" />
    <g
       id="g68" />
    <g
       id="g70" />
    <g
       id="g72" />
    <g
       id="g74" />
    <g
       id="g76" />
  </g>
  <path
     style="fill:#000000;fill-opacity:0.991936;stroke:none;stroke-width:0;stroke-linejoin:round"
     d="m 54.648767,5.8500508 c -3.122687,3.1449029 -6.24531,6.2898682 -9.367859,9.4349062 -13.242373,0 -26.484746,0 -39.7271185,0 -0.9314021,1.291715 -0.1349582,3.529128 -0.3999472,5.175993 0,13.333129 0,26.666256 0,39.999386 1.2917152,0.931404 3.5291275,0.134959 5.1759937,0.399946 11.041496,0 22.082994,0 33.124491,0 3.258329,3.149701 6.336392,6.569159 9.705424,9.553259 49.047749,-0.05014 98.095509,-0.100279 147.143259,-0.150418 0.80491,-0.745428 0.53722,-2.312218 1.43772,-3.173343 2.12357,-3.440591 7.82261,-2.910474 9.36261,0.850035 0.55133,1.126586 0.48647,3.05584 2.3029,2.472559 24.59364,0 49.18729,0 73.78093,0 5.94999,-5.55984 11.61122,-11.551876 17.45077,-17.277018 0.27436,-8.800211 0.0384,-17.701982 0.11716,-26.541104 -0.0989,-1.830631 0.58399,-4.046883 -1.38163,-5.122725 -5.31231,-5.212801 -10.44642,-10.692002 -15.86972,-15.7386619 -25.12477,0 -50.24954,0 -75.37431,0 -0.8706,0.9445907 -0.77794,2.7120912 -1.83882,3.7149617 -2.52045,3.2835452 -8.48905,2.0215242 -9.3527,-2.0848561 0.19966,-2.0845096 -1.99237,-1.4024033 -3.32143,-1.483634 C 150.05542,5.8301242 102.49435,5.7809116 54.933279,5.7316991 L 54.657671,5.8463474 Z M 206.21769,22.100384 c 2.97935,-0.193379 5.55862,2.624985 5.35556,5.605674 0.28374,7.323342 -0.0167,14.702985 -0.004,22.047236 -1.05442,2.756292 -4.41559,4.92774 -7.28884,3.573874 -2.12126,-0.852644 -3.84594,-2.978548 -3.47068,-5.332826 -0.0467,-7.317923 -0.29313,-14.661089 0.13177,-21.966779 0.50442,-2.369529 2.93415,-3.9372 5.27569,-3.927179 z"
     id="path929"
     transform="scale(264583.33)" />
</svg>
