<?xml version="1.0" standalone="no"?>
 <!DOCTYPE svg PUBLIC "-//W3C//DTD SVG 1.1//EN" 
 "http://www.w3.org/Graphics/SVG/1.1/DTD/svg11.dtd"> 
<svg
  xmlns:svg="http://www.w3.org/2000/svg"
  xmlns="http://www.w3.org/2000/svg"
  xmlns:xlink="http://www.w3.org/1999/xlink"
  version="1.1"
  width="8.229600cm" height="2.021840cm" viewBox="0 0 82296000 20218400">
<title>SVG Picture created as SAMD-UPDI-breakaway-F_Cu.svg date 2022/01/20 05:08:00 </title>
  <desc>Picture generated by PCBNEW </desc>
<g style="fill:#000000; fill-opacity:1.000000;stroke:#000000; stroke-opacity:1.000000;
stroke-linecap:round; stroke-linejoin:round;"
 transform="translate(0 0) scale(1 1)">
</g>
<g style="fill:#000000; fill-opacity:0.0; 
stroke:#000000; stroke-width:0.000000; stroke-opacity:1; 
stroke-linecap:round; stroke-linejoin:round;">
<g >
</g>
<g style="fill:#000000; fill-opacity:0.0; 
stroke:#000000; stroke-width:1.000000; stroke-opacity:1; 
stroke-linecap:round; stroke-linejoin:round;">
</g>
<g style="fill:#000000; fill-opacity:1.0; 
stroke:#000000; stroke-width:1.000000; stroke-opacity:1; 
stroke-linecap:round; stroke-linejoin:round;">
<path style="fill:#000000; fill-opacity:1.0; 
stroke:#000000; stroke-width:1.000000; stroke-opacity:1; 
stroke-linecap:round; stroke-linejoin:round;fill-rule:evenodd;"
d="M 39000001.000000,4070001.000000
39999999.000000,4070001.000000
39999999.000000,5869999.000000
39000001.000000,5869999.000000
Z" /> 
<path style="fill:#000000; fill-opacity:1.0; 
stroke:#000000; stroke-width:1.000000; stroke-opacity:1; 
stroke-linecap:round; stroke-linejoin:round;fill-rule:evenodd;"
d="M 37300001.000000,4070001.000000
38299999.000000,4070001.000000
38299999.000000,5869999.000000
37300001.000000,5869999.000000
Z" /> 
<path style="fill:#000000; fill-opacity:1.0; 
stroke:#000000; stroke-width:1.000000; stroke-opacity:1; 
stroke-linecap:round; stroke-linejoin:round;fill-rule:evenodd;"
d="M 38150001.000000,6470001.000000
39149999.000000,6470001.000000
39149999.000000,8269999.000000
38150001.000000,8269999.000000
Z" /> 
</g>
<g >
</g>
<g style="fill:#000000; fill-opacity:1.0; 
stroke:#000000; stroke-width:1.000000; stroke-opacity:1; 
stroke-linecap:round; stroke-linejoin:round;">
<path style="fill:#000000; fill-opacity:1.0; 
stroke:#000000; stroke-width:1.000000; stroke-opacity:1; 
stroke-linecap:round; stroke-linejoin:round;fill-rule:evenodd;"
d="M 73300001.000000,13499999.000000
73300001.000000,11800001.000000
75799999.000000,11800001.000000
75799999.000000,13499999.000000
Z" /> 
<path style="fill:#000000; fill-opacity:1.0; 
stroke:#000000; stroke-width:1.000000; stroke-opacity:1; 
stroke-linecap:round; stroke-linejoin:round;fill-rule:evenodd;"
d="M 73300001.000000,10959999.000000
73300001.000000,9260001.000000
75799999.000000,9260001.000000
75799999.000000,10959999.000000
Z" /> 
<path style="fill:#000000; fill-opacity:1.0; 
stroke:#000000; stroke-width:1.000000; stroke-opacity:1; 
stroke-linecap:round; stroke-linejoin:round;fill-rule:evenodd;"
d="M 73300001.000000,8419999.000000
73300001.000000,6720001.000000
75799999.000000,6720001.000000
75799999.000000,8419999.000000
Z" /> 
</g>
<g >
</g>
<g style="fill:#000000; fill-opacity:1.0; 
stroke:#000000; stroke-width:1.000000; stroke-opacity:1; 
stroke-linecap:round; stroke-linejoin:round;">
<path style="fill:#000000; fill-opacity:1.0; 
stroke:#000000; stroke-width:1.000000; stroke-opacity:1; 
stroke-linecap:round; stroke-linejoin:round;fill-rule:evenodd;"
d="M 12400001.000000,6945001.000000
14099999.000000,6945001.000000
14099999.000000,8944999.000000
12400001.000000,8944999.000000
Z" /> 
<path style="fill:#000000; fill-opacity:1.0; 
stroke:#000000; stroke-width:1.000000; stroke-opacity:1; 
stroke-linecap:round; stroke-linejoin:round;fill-rule:evenodd;"
d="M 12400001.000000,10945001.000000
14099999.000000,10945001.000000
14099999.000000,12944999.000000
12400001.000000,12944999.000000
Z" /> 
</g>
<g >
</g>
<g style="fill:#000000; fill-opacity:1.0; 
stroke:#000000; stroke-width:1.000000; stroke-opacity:1; 
stroke-linecap:round; stroke-linejoin:round;">
<path style="fill:#000000; fill-opacity:1.0; 
stroke:#000000; stroke-width:1.000000; stroke-opacity:1; 
stroke-linecap:round; stroke-linejoin:round;fill-rule:evenodd;"
d="M 41899999.000000,17069999.000000
40200001.000000,17069999.000000
40200001.000000,15070001.000000
41899999.000000,15070001.000000
Z" /> 
<path style="fill:#000000; fill-opacity:1.0; 
stroke:#000000; stroke-width:1.000000; stroke-opacity:1; 
stroke-linecap:round; stroke-linejoin:round;fill-rule:evenodd;"
d="M 41899999.000000,13069999.000000
40200001.000000,13069999.000000
40200001.000000,11070001.000000
41899999.000000,11070001.000000
Z" /> 
</g>
<g >
</g>
<g style="fill:#000000; fill-opacity:1.0; 
stroke:#000000; stroke-width:1.000000; stroke-opacity:1; 
stroke-linecap:round; stroke-linejoin:round;">
<path style="fill:#000000; fill-opacity:1.0; 
stroke:#000000; stroke-width:1.000000; stroke-opacity:1; 
stroke-linecap:round; stroke-linejoin:round;fill-rule:evenodd;"
d="M 30760001.000000,11445001.000000
31359999.000000,11445001.000000
31359999.000000,13444999.000000
30760001.000000,13444999.000000
Z" /> 
<path style="fill:#000000; fill-opacity:1.0; 
stroke:#000000; stroke-width:1.000000; stroke-opacity:1; 
stroke-linecap:round; stroke-linejoin:round;fill-rule:evenodd;"
d="M 29490001.000000,11445001.000000
30089999.000000,11445001.000000
30089999.000000,13444999.000000
29490001.000000,13444999.000000
Z" /> 
<path style="fill:#000000; fill-opacity:1.0; 
stroke:#000000; stroke-width:1.000000; stroke-opacity:1; 
stroke-linecap:round; stroke-linejoin:round;fill-rule:evenodd;"
d="M 28220001.000000,11445001.000000
28819999.000000,11445001.000000
28819999.000000,13444999.000000
28220001.000000,13444999.000000
Z" /> 
<path style="fill:#000000; fill-opacity:1.0; 
stroke:#000000; stroke-width:1.000000; stroke-opacity:1; 
stroke-linecap:round; stroke-linejoin:round;fill-rule:evenodd;"
d="M 26950001.000000,11445001.000000
27549999.000000,11445001.000000
27549999.000000,13444999.000000
26950001.000000,13444999.000000
Z" /> 
<path style="fill:#000000; fill-opacity:1.0; 
stroke:#000000; stroke-width:1.000000; stroke-opacity:1; 
stroke-linecap:round; stroke-linejoin:round;fill-rule:evenodd;"
d="M 25680001.000000,11445001.000000
26279999.000000,11445001.000000
26279999.000000,13444999.000000
25680001.000000,13444999.000000
Z" /> 
<path style="fill:#000000; fill-opacity:1.0; 
stroke:#000000; stroke-width:1.000000; stroke-opacity:1; 
stroke-linecap:round; stroke-linejoin:round;fill-rule:evenodd;"
d="M 24410001.000000,11445001.000000
25009999.000000,11445001.000000
25009999.000000,13444999.000000
24410001.000000,13444999.000000
Z" /> 
<path style="fill:#000000; fill-opacity:1.0; 
stroke:#000000; stroke-width:1.000000; stroke-opacity:1; 
stroke-linecap:round; stroke-linejoin:round;fill-rule:evenodd;"
d="M 23140001.000000,11445001.000000
23739999.000000,11445001.000000
23739999.000000,13444999.000000
23140001.000000,13444999.000000
Z" /> 
<path style="fill:#000000; fill-opacity:1.0; 
stroke:#000000; stroke-width:1.000000; stroke-opacity:1; 
stroke-linecap:round; stroke-linejoin:round;fill-rule:evenodd;"
d="M 23140001.000000,6495001.000000
23739999.000000,6495001.000000
23739999.000000,8494999.000000
23140001.000000,8494999.000000
Z" /> 
<path style="fill:#000000; fill-opacity:1.0; 
stroke:#000000; stroke-width:1.000000; stroke-opacity:1; 
stroke-linecap:round; stroke-linejoin:round;fill-rule:evenodd;"
d="M 24410001.000000,6495001.000000
25009999.000000,6495001.000000
25009999.000000,8494999.000000
24410001.000000,8494999.000000
Z" /> 
<path style="fill:#000000; fill-opacity:1.0; 
stroke:#000000; stroke-width:1.000000; stroke-opacity:1; 
stroke-linecap:round; stroke-linejoin:round;fill-rule:evenodd;"
d="M 25680001.000000,6495001.000000
26279999.000000,6495001.000000
26279999.000000,8494999.000000
25680001.000000,8494999.000000
Z" /> 
<path style="fill:#000000; fill-opacity:1.0; 
stroke:#000000; stroke-width:1.000000; stroke-opacity:1; 
stroke-linecap:round; stroke-linejoin:round;fill-rule:evenodd;"
d="M 26950001.000000,6495001.000000
27549999.000000,6495001.000000
27549999.000000,8494999.000000
26950001.000000,8494999.000000
Z" /> 
<path style="fill:#000000; fill-opacity:1.0; 
stroke:#000000; stroke-width:1.000000; stroke-opacity:1; 
stroke-linecap:round; stroke-linejoin:round;fill-rule:evenodd;"
d="M 28220001.000000,6495001.000000
28819999.000000,6495001.000000
28819999.000000,8494999.000000
28220001.000000,8494999.000000
Z" /> 
<path style="fill:#000000; fill-opacity:1.0; 
stroke:#000000; stroke-width:1.000000; stroke-opacity:1; 
stroke-linecap:round; stroke-linejoin:round;fill-rule:evenodd;"
d="M 29490001.000000,6495001.000000
30089999.000000,6495001.000000
30089999.000000,8494999.000000
29490001.000000,8494999.000000
Z" /> 
<path style="fill:#000000; fill-opacity:1.0; 
stroke:#000000; stroke-width:1.000000; stroke-opacity:1; 
stroke-linecap:round; stroke-linejoin:round;fill-rule:evenodd;"
d="M 30760001.000000,6495001.000000
31359999.000000,6495001.000000
31359999.000000,8494999.000000
30760001.000000,8494999.000000
Z" /> 
</g>
<g >
</g>
<g style="fill:#000000; fill-opacity:1.0; 
stroke:#000000; stroke-width:1.000000; stroke-opacity:1; 
stroke-linecap:round; stroke-linejoin:round;">
<path style="fill:#000000; fill-opacity:1.0; 
stroke:#000000; stroke-width:1.000000; stroke-opacity:1; 
stroke-linecap:round; stroke-linejoin:round;fill-rule:evenodd;"
d="M 69200001.000000,10570001.000000
70899999.000000,10570001.000000
70899999.000000,12569999.000000
69200001.000000,12569999.000000
Z" /> 
<path style="fill:#000000; fill-opacity:1.0; 
stroke:#000000; stroke-width:1.000000; stroke-opacity:1; 
stroke-linecap:round; stroke-linejoin:round;fill-rule:evenodd;"
d="M 69200001.000000,14570001.000000
70899999.000000,14570001.000000
70899999.000000,16569999.000000
69200001.000000,16569999.000000
Z" /> 
</g>
<g >
</g>
<g style="fill:#000000; fill-opacity:1.0; 
stroke:#000000; stroke-width:1.000000; stroke-opacity:1; 
stroke-linecap:round; stroke-linejoin:round;">
<path style="fill:#000000; fill-opacity:1.0; 
stroke:#000000; stroke-width:1.000000; stroke-opacity:1; 
stroke-linecap:round; stroke-linejoin:round;fill-rule:evenodd;"
d="M 37899999.000000,16269999.000000
36200001.000000,16269999.000000
36200001.000000,14270001.000000
37899999.000000,14270001.000000
Z" /> 
<path style="fill:#000000; fill-opacity:1.0; 
stroke:#000000; stroke-width:1.000000; stroke-opacity:1; 
stroke-linecap:round; stroke-linejoin:round;fill-rule:evenodd;"
d="M 37899999.000000,12269999.000000
36200001.000000,12269999.000000
36200001.000000,10270001.000000
37899999.000000,10270001.000000
Z" /> 
</g>
<g >
</g>
<g style="fill:#000000; fill-opacity:1.0; 
stroke:#000000; stroke-width:1.000000; stroke-opacity:1; 
stroke-linecap:round; stroke-linejoin:round;">
<path style="fill:#000000; fill-opacity:1.0; 
stroke:#000000; stroke-width:1.000000; stroke-opacity:1; 
stroke-linecap:round; stroke-linejoin:round;fill-rule:evenodd;"
d="M 61100001.000000,17119999.000000
61100001.000000,15420001.000000
63599999.000000,15420001.000000
63599999.000000,17119999.000000
Z" /> 
<path style="fill:#000000; fill-opacity:1.0; 
stroke:#000000; stroke-width:1.000000; stroke-opacity:1; 
stroke-linecap:round; stroke-linejoin:round;fill-rule:evenodd;"
d="M 61100001.000000,14579999.000000
61100001.000000,12880001.000000
63599999.000000,12880001.000000
63599999.000000,14579999.000000
Z" /> 
<path style="fill:#000000; fill-opacity:1.0; 
stroke:#000000; stroke-width:1.000000; stroke-opacity:1; 
stroke-linecap:round; stroke-linejoin:round;fill-rule:evenodd;"
d="M 61100001.000000,12039999.000000
61100001.000000,10340001.000000
63599999.000000,10340001.000000
63599999.000000,12039999.000000
Z" /> 
<path style="fill:#000000; fill-opacity:1.0; 
stroke:#000000; stroke-width:1.000000; stroke-opacity:1; 
stroke-linecap:round; stroke-linejoin:round;fill-rule:evenodd;"
d="M 61100001.000000,9499999.000000
61100001.000000,7800001.000000
63599999.000000,7800001.000000
63599999.000000,9499999.000000
Z" /> 
<path style="fill:#000000; fill-opacity:1.0; 
stroke:#000000; stroke-width:1.000000; stroke-opacity:1; 
stroke-linecap:round; stroke-linejoin:round;fill-rule:evenodd;"
d="M 61100001.000000,6959999.000000
61100001.000000,5260001.000000
63599999.000000,5260001.000000
63599999.000000,6959999.000000
Z" /> 
<path style="fill:#000000; fill-opacity:1.0; 
stroke:#000000; stroke-width:1.000000; stroke-opacity:1; 
stroke-linecap:round; stroke-linejoin:round;fill-rule:evenodd;"
d="M 61100001.000000,4419999.000000
61100001.000000,2720001.000000
63599999.000000,2720001.000000
63599999.000000,4419999.000000
Z" /> 
</g>
<g >
</g>
<g style="fill:#000000; fill-opacity:1.0; 
stroke:#000000; stroke-width:1.000000; stroke-opacity:1; 
stroke-linecap:round; stroke-linejoin:round;">
<path style="fill:#000000; fill-opacity:1.0; 
stroke:#000000; stroke-width:1.000000; stroke-opacity:1; 
stroke-linecap:round; stroke-linejoin:round;fill-rule:evenodd;"
d="M 45800001.000000,17119999.000000
45800001.000000,15420001.000000
48299999.000000,15420001.000000
48299999.000000,17119999.000000
Z" /> 
<path style="fill:#000000; fill-opacity:1.0; 
stroke:#000000; stroke-width:1.000000; stroke-opacity:1; 
stroke-linecap:round; stroke-linejoin:round;fill-rule:evenodd;"
d="M 45800001.000000,14579999.000000
45800001.000000,12880001.000000
48299999.000000,12880001.000000
48299999.000000,14579999.000000
Z" /> 
<path style="fill:#000000; fill-opacity:1.0; 
stroke:#000000; stroke-width:1.000000; stroke-opacity:1; 
stroke-linecap:round; stroke-linejoin:round;fill-rule:evenodd;"
d="M 45800001.000000,12039999.000000
45800001.000000,10340001.000000
48299999.000000,10340001.000000
48299999.000000,12039999.000000
Z" /> 
<path style="fill:#000000; fill-opacity:1.0; 
stroke:#000000; stroke-width:1.000000; stroke-opacity:1; 
stroke-linecap:round; stroke-linejoin:round;fill-rule:evenodd;"
d="M 45800001.000000,9499999.000000
45800001.000000,7800001.000000
48299999.000000,7800001.000000
48299999.000000,9499999.000000
Z" /> 
<path style="fill:#000000; fill-opacity:1.0; 
stroke:#000000; stroke-width:1.000000; stroke-opacity:1; 
stroke-linecap:round; stroke-linejoin:round;fill-rule:evenodd;"
d="M 45800001.000000,6959999.000000
45800001.000000,5260001.000000
48299999.000000,5260001.000000
48299999.000000,6959999.000000
Z" /> 
<path style="fill:#000000; fill-opacity:1.0; 
stroke:#000000; stroke-width:1.000000; stroke-opacity:1; 
stroke-linecap:round; stroke-linejoin:round;fill-rule:evenodd;"
d="M 45800001.000000,4419999.000000
45800001.000000,2720001.000000
48299999.000000,2720001.000000
48299999.000000,4419999.000000
Z" /> 
</g>
<g >
</g>
<g style="fill:#000000; fill-opacity:1.0; 
stroke:#000000; stroke-width:1.000000; stroke-opacity:1; 
stroke-linecap:round; stroke-linejoin:round;">
<path style="fill:#000000; fill-opacity:1.0; 
stroke:#000000; stroke-width:1.000000; stroke-opacity:1; 
stroke-linecap:round; stroke-linejoin:round;fill-rule:evenodd;"
d="M 2450001.000000,14319999.000000
2450001.000000,12820001.000000
9949999.000000,12820001.000000
9949999.000000,14319999.000000
Z" /> 
<path style="fill:#000000; fill-opacity:1.0; 
stroke:#000000; stroke-width:1.000000; stroke-opacity:1; 
stroke-linecap:round; stroke-linejoin:round;fill-rule:evenodd;"
d="M 2450001.000000,7319999.000000
2450001.000000,5820001.000000
9949999.000000,5820001.000000
9949999.000000,7319999.000000
Z" /> 
<path style="fill:#000000; fill-opacity:1.0; 
stroke:#000000; stroke-width:1.000000; stroke-opacity:1; 
stroke-linecap:round; stroke-linejoin:round;fill-rule:evenodd;"
d="M 3450001.000000,11569999.000000
3450001.000000,10570001.000000
9949999.000000,10570001.000000
9949999.000000,11569999.000000
Z" /> 
<path style="fill:#000000; fill-opacity:1.0; 
stroke:#000000; stroke-width:1.000000; stroke-opacity:1; 
stroke-linecap:round; stroke-linejoin:round;fill-rule:evenodd;"
d="M 3450001.000000,9569999.000000
3450001.000000,8570001.000000
9949999.000000,8570001.000000
9949999.000000,9569999.000000
Z" /> 
</g>
<g >
</g>
<g style="fill:#000000; fill-opacity:1.0; 
stroke:#000000; stroke-width:1.000000; stroke-opacity:1; 
stroke-linecap:round; stroke-linejoin:round;">
<path style="fill:#000000; fill-opacity:1.0; 
stroke:#000000; stroke-width:1.000000; stroke-opacity:1; 
stroke-linecap:round; stroke-linejoin:round;fill-rule:evenodd;"
d="M 16810001.000000,10895001.000000
17809999.000000,10895001.000000
17809999.000000,14044999.000000
16810001.000000,14044999.000000
Z" /> 
<path style="fill:#000000; fill-opacity:1.0; 
stroke:#000000; stroke-width:1.000000; stroke-opacity:1; 
stroke-linecap:round; stroke-linejoin:round;fill-rule:evenodd;"
d="M 16810001.000000,5845001.000000
17809999.000000,5845001.000000
17809999.000000,8994999.000000
16810001.000000,8994999.000000
Z" /> 
<path style="fill:#000000; fill-opacity:1.0; 
stroke:#000000; stroke-width:1.000000; stroke-opacity:1; 
stroke-linecap:round; stroke-linejoin:round;fill-rule:evenodd;"
d="M 19350001.000000,10895001.000000
20349999.000000,10895001.000000
20349999.000000,14044999.000000
19350001.000000,14044999.000000
Z" /> 
<path style="fill:#000000; fill-opacity:1.0; 
stroke:#000000; stroke-width:1.000000; stroke-opacity:1; 
stroke-linecap:round; stroke-linejoin:round;fill-rule:evenodd;"
d="M 19350001.000000,5845001.000000
20349999.000000,5845001.000000
20349999.000000,8994999.000000
19350001.000000,8994999.000000
Z" /> 
</g>
<g >
</g>
<g style="fill:#000000; fill-opacity:1.0; 
stroke:#000000; stroke-width:1.000000; stroke-opacity:1; 
stroke-linecap:round; stroke-linejoin:round;">
<path style="fill:#000000; fill-opacity:1.0; 
stroke:#000000; stroke-width:1.000000; stroke-opacity:1; 
stroke-linecap:round; stroke-linejoin:round;fill-rule:evenodd;"
d="M 35449999.000000,9119999.000000
33750001.000000,9119999.000000
33750001.000000,7120001.000000
35449999.000000,7120001.000000
Z" /> 
<path style="fill:#000000; fill-opacity:1.0; 
stroke:#000000; stroke-width:1.000000; stroke-opacity:1; 
stroke-linecap:round; stroke-linejoin:round;fill-rule:evenodd;"
d="M 35449999.000000,5119999.000000
33750001.000000,5119999.000000
33750001.000000,3120001.000000
35449999.000000,3120001.000000
Z" /> 
</g>
<g >
</g>
<g style="fill:#000000; fill-opacity:1.0; 
stroke:#000000; stroke-width:1.000000; stroke-opacity:1; 
stroke-linecap:round; stroke-linejoin:round;">
<path style="fill:#000000; fill-opacity:1.0; 
stroke:#000000; stroke-width:1.000000; stroke-opacity:1; 
stroke-linecap:round; stroke-linejoin:round;fill-rule:evenodd;"
d="M 41700001.000000,3070001.000000
43399999.000000,3070001.000000
43399999.000000,5069999.000000
41700001.000000,5069999.000000
Z" /> 
<path style="fill:#000000; fill-opacity:1.0; 
stroke:#000000; stroke-width:1.000000; stroke-opacity:1; 
stroke-linecap:round; stroke-linejoin:round;fill-rule:evenodd;"
d="M 41700001.000000,7070001.000000
43399999.000000,7070001.000000
43399999.000000,9069999.000000
41700001.000000,9069999.000000
Z" /> 
</g>
<g >
</g>
<g >
</g>
<g style="fill:#000000; fill-opacity:1.0; 
stroke:#000000; stroke-width:1.000000; stroke-opacity:1; 
stroke-linecap:round; stroke-linejoin:round;">
</g>
<g style="fill:#000000; fill-opacity:1.0; 
stroke:#000000; stroke-width:500000.000000; stroke-opacity:1; 
stroke-linecap:round; stroke-linejoin:round;">
</g>
<g style="fill:#000000; fill-opacity:0.0; 
stroke:#000000; stroke-width:500000.000000; stroke-opacity:1; 
stroke-linecap:round; stroke-linejoin:round;">
<path d="M39500000 3620000
L39500000 4970000
" />
<path d="M39250000 3370000
L39500000 3620000
" />
<path d="M34700000 4120000
L35450000 3370000
" />
<path d="M35450000 3370000
L39250000 3370000
" />
<path d="M34600000 4120000
L34700000 4120000
" />
<path d="M38650000 7170000
L41050000 9570000
" />
<path d="M38650000 7107500
L38650000 7170000
" />
<path d="M36750000 8120000
L36750000 8270000
" />
<path d="M36750000 8270000
L37650000 9170000
" />
<path d="M36750000 6870000
L36750000 8120000
" />
<path d="M36750000 8120000
L34600000 8120000
" />
<path d="M37700000 5920000
L36750000 6870000
" />
<path d="M37700000 5232500
L37700000 5920000
" />
<path d="M39600000 4720000
L39600000 5232500
" />
<path d="M39600000 4620000
L39600000 5232500
" />
<path d="M40150000 4070000
L39600000 4620000
" />
<path d="M42550000 4070000
L40150000 4070000
" />
<path d="M56850000 3970000
L57250000 3570000
" />
<path d="M52450000 3970000
L56850000 3970000
" />
<path d="M57250000 3570000
L62350000 3570000
" />
<path d="M52050000 3570000
L52450000 3970000
" />
<path d="M47050000 3570000
L52050000 3570000
" />
<path d="M56550000 4970000
L60630000 8650000
" />
<path d="M60630000 8650000
L62350000 8650000
" />
<path d="M52550000 4970000
L56550000 4970000
" />
<path d="M48470000 8650000
L52550000 4970000
" />
<path d="M47050000 8650000
L48470000 8650000
" />
</g>
<g style="fill:#000000; fill-opacity:0.0; 
stroke:#000000; stroke-width:400000.000000; stroke-opacity:1; 
stroke-linecap:round; stroke-linejoin:round;">
<path d="M59390000 13730000
L62350000 13730000
" />
<path d="M57050000 16070000
L59390000 13730000
" />
<path d="M52050000 16070000
L57050000 16070000
" />
<path d="M49710000 13730000
L52050000 16070000
" />
<path d="M47050000 13730000
L49710000 13730000
" />
<path d="M47570000 11070000
L47450000 11190000
" />
<path d="M48550000 11070000
L47570000 11070000
" />
<path d="M52550000 15070000
L48550000 11070000
" />
<path d="M56550000 15070000
L52550000 15070000
" />
<path d="M62350000 11190000
L60930000 11190000
" />
<path d="M60930000 11190000
L56550000 15070000
" />
<path d="M47450000 11190000
L47050000 11190000
" />
</g>
<g style="fill:#000000; fill-opacity:0.0; 
stroke:#000000; stroke-width:500000.000000; stroke-opacity:1; 
stroke-linecap:round; stroke-linejoin:round;">
<path d="M69670000 11190000
L62350000 11190000
" />
<path d="M70050000 11570000
L69670000 11190000
" />
<path d="M70550000 15570000
L70050000 15570000
" />
<path d="M74550000 12650000
L73470000 12650000
" />
<path d="M73470000 12650000
L70550000 15570000
" />
<path d="M65210000 13730000
L62350000 13730000
" />
<path d="M67050000 15570000
L65210000 13730000
" />
<path d="M70050000 15570000
L67050000 15570000
" />
<path d="M76510000 10110000
L74550000 10110000
" />
<path d="M76550000 10070000
L76510000 10110000
" />
<path d="M76550000 5570000
L76550000 10070000
" />
<path d="M70550000 3570000
L72550000 5570000
" />
<path d="M72550000 5570000
L76550000 5570000
" />
<path d="M62350000 3570000
L70550000 3570000
" />
<path d="M70550000 7570000
L74550000 7570000
" />
<path d="M69470000 8650000
L70550000 7570000
" />
<path d="M62350000 8650000
L69470000 8650000
" />
<path d="M27250000 14670000
L27250000 12445000
" />
<path d="M27250000 14670000
L26750000 15170000
" />
<path d="M17310000 14545000
L17310000 12470000
" />
<path d="M17935000 15170000
L17310000 14545000
" />
<path d="M26750000 15170000
L17935000 15170000
" />
<path d="M42550000 3570000
L47050000 3570000
" />
<path d="M11875000 6570000
L13250000 7945000
" />
<path d="M6200000 6570000
L11875000 6570000
" />
<path d="M13250000 5770000
L13250000 7945000
" />
<path d="M14950000 4070000
L13250000 5770000
" />
<path d="M34050000 4070000
L14950000 4070000
" />
<path d="M42550000 8070000
L43050000 8070000
" />
<path d="M44130000 8650000
L47050000 8650000
" />
<path d="M43050000 7570000
L44130000 8650000
" />
<path d="M41050000 9570000
L42550000 8070000
" />
<path d="M41050000 12070000
L41050000 9570000
" />
</g>
<g style="fill:#000000; fill-opacity:0.0; 
stroke:#000000; stroke-width:400000.000000; stroke-opacity:1; 
stroke-linecap:round; stroke-linejoin:round;">
<path d="M38550000 10070000
L38550000 12870000
" />
<path d="M37650000 9170000
L38550000 10070000
" />
<path d="M28520000 11694998
L28520000 12445000
" />
<path d="M29644998 10570000
L28520000 11694998
" />
<path d="M31450000 10570000
L29644998 10570000
" />
<path d="M34250000 12870000
L31450000 10570000
" />
<path d="M38550000 12870000
L34250000 12870000
" />
</g>
<g style="fill:#000000; fill-opacity:0.0; 
stroke:#000000; stroke-width:350000.000000; stroke-opacity:1; 
stroke-linecap:round; stroke-linejoin:round;">
<path d="M10450000 9570000
L24350000 9570000
" />
<path d="M9950000 9070000
L10450000 9570000
" />
</g>
<g style="fill:#000000; fill-opacity:0.0; 
stroke:#000000; stroke-width:250000.000000; stroke-opacity:1; 
stroke-linecap:round; stroke-linejoin:round;">
<path d="M6700000 9070000
L9950000 9070000
" />
</g>
<g style="fill:#000000; fill-opacity:0.0; 
stroke:#000000; stroke-width:350000.000000; stroke-opacity:1; 
stroke-linecap:round; stroke-linejoin:round;">
<path d="M25980000 11200000
L24350000 9570000
" />
<path d="M25980000 12445000
L25980000 11200000
" />
</g>
<g style="fill:#000000; fill-opacity:0.0; 
stroke:#000000; stroke-width:250000.000000; stroke-opacity:1; 
stroke-linecap:round; stroke-linejoin:round;">
<path d="M6700000 11070000
L9400000 11070000
" />
</g>
<g style="fill:#000000; fill-opacity:0.0; 
stroke:#000000; stroke-width:350000.000000; stroke-opacity:1; 
stroke-linecap:round; stroke-linejoin:round;">
<path d="M10150000 10320000
L23700000 10320000
" />
<path d="M9400000 11070000
L10150000 10320000
" />
<path d="M24710000 11330000
L23700000 10320000
" />
<path d="M24710000 12445000
L24710000 11330000
" />
</g>
<g style="fill:#000000; fill-opacity:0.0; 
stroke:#000000; stroke-width:400000.000000; stroke-opacity:1; 
stroke-linecap:round; stroke-linejoin:round;">
<path d="M44890000 13730000
L47050000 13730000
" />
<path d="M44150000 14470000
L44890000 13730000
" />
<path d="M39300000 14470000
L44150000 14470000
" />
<path d="M38500000 15270000
L39300000 14470000
" />
<path d="M37050000 15270000
L38500000 15270000
" />
<path d="M45030000 11190000
L47050000 11190000
" />
<path d="M42550000 13670000
L45030000 11190000
" />
<path d="M33650000 13670000
L42550000 13670000
" />
<path d="M32425000 12445000
L33650000 13670000
" />
<path d="M31060000 12445000
L32425000 12445000
" />
</g>
<g style="fill:#000000; fill-opacity:0.0; 
stroke:#000000; stroke-width:500000.000000; stroke-opacity:1; 
stroke-linecap:round; stroke-linejoin:round;">
<path d="M37050000 11270000
L34250000 11270000
" />
<path d="M31060000 8080000
L31060000 7495000
" />
<path d="M34250000 11270000
L31060000 8080000
" />
<path d="M17310000 5610000
L17310000 7420000
" />
<path d="M17750000 5170000
L17310000 5610000
" />
<path d="M23885000 5170000
L17750000 5170000
" />
<path d="M24710000 5995000
L23885000 5170000
" />
<path d="M24710000 7495000
L24710000 5995000
" />
<path d="M19875000 12445000
L19850000 12470000
" />
<path d="M23440000 12445000
L19875000 12445000
" />
<path d="M19925000 7495000
L19850000 7420000
" />
<path d="M23440000 7495000
L19925000 7495000
" />
<path d="M39600000 16070000
L41050000 16070000
" />
<path d="M38700000 16970000
L39600000 16070000
" />
<path d="M14850000 16970000
L38700000 16970000
" />
<path d="M11450000 13570000
L14850000 16970000
" />
<path d="M6200000 13570000
L11450000 13570000
" />
<path d="M16785000 11945000
L17310000 12470000
" />
<path d="M13250000 11945000
L16785000 11945000
" />
</g>
<g >
</g>
</g>
<g style="fill:#FFFFFF; fill-opacity:0.0; 
stroke:#FFFFFF; stroke-width:500000.000000; stroke-opacity:1; 
stroke-linecap:round; stroke-linejoin:round;">
</g>
<g style="fill:#000000; fill-opacity:0.0; 
stroke:#000000; stroke-width:500000.000000; stroke-opacity:1; 
stroke-linecap:round; stroke-linejoin:round;">
</g> 
</svg>
